STARTFONT 2.1
FONT --Swiss-Regular-R-Medium--16-120-96-96-P-92-IBM-UGL
SIZE 12 96 96
FONTBOUNDINGBOX 16 20 0 -4
METRICSSET 2
STARTPROPERTIES 27
FONT_ASCENT 12
FONT_DESCENT 4
PIXEL_SIZE 16
RESOLUTION_X 96
RESOLUTION_Y 96
POINT_SIZE 120
FACE_NAME "Helv"
FOUNDRY ""
FAMILY_NAME "Swiss"
WEIGHT_NAME "Regular"
RELATIVE_WEIGHT 50
SLANT "R"
SPACING "P"
SETWIDTH_NAME "Medium"
RELATIVE_SETWIDTH 50
ADD_STYLE_NAME ""
AVERAGE_WIDTH 92
UNDERLINE_POSITION 2
SUPERSCRIPT_SIZE 12
SUBSCRIPT_SIZE 12
SUPERSCRIPT_X 0
SUPERSCRIPT_Y 6
SUBSCRIPT_X 0
SUBSCRIPT_Y 3
DEFAULT_CHAR 32
CHARSET_REGISTRY "IBM"
CHARSET_ENCODING "UGL"
ENDPROPERTIES
CHARS 330
STARTCHAR smileface
ENCODING 1
SWIDTH 750 0
DWIDTH 12 0
BBX 10 11 1 0
VVECTOR 6 16
SWIDTH1 0 -1250
DWIDTH1 0 -20
BITMAP 
1E00
6180
4080
9240
9240
8040
A140
9240
4C80
6180
1E00
ENDCHAR
STARTCHAR invsmileface
ENCODING 2
SWIDTH 750 0
DWIDTH 12 0
BBX 10 11 1 0
VVECTOR 6 16
SWIDTH1 0 -1250
DWIDTH1 0 -20
BITMAP 
1E00
7F80
7F80
EDC0
EDC0
FFC0
BF40
CCC0
6180
7F80
1E00
ENDCHAR
STARTCHAR heart
ENCODING 3
SWIDTH 750 0
DWIDTH 12 0
BBX 9 11 2 0
VVECTOR 7 16
SWIDTH1 0 -1250
DWIDTH1 0 -20
BITMAP 
6300
F780
FF80
FF80
FF80
7F00
3E00
3E00
1C00
0800
0800
ENDCHAR
STARTCHAR diamond
ENCODING 4
SWIDTH 750 0
DWIDTH 12 0
BBX 9 11 2 0
VVECTOR 7 16
SWIDTH1 0 -1250
DWIDTH1 0 -20
BITMAP 
0800
1C00
1C00
3E00
7F00
FF80
7F00
3E00
1C00
1C00
0800
ENDCHAR
STARTCHAR club
ENCODING 5
SWIDTH 750 0
DWIDTH 12 0
BBX 11 11 1 0
VVECTOR 7 16
SWIDTH1 0 -1250
DWIDTH1 0 -20
BITMAP 
0E00
1F00
1F00
1F00
6EC0
FFE0
FFE0
F5E0
64C0
0400
1F00
ENDCHAR
STARTCHAR spade
ENCODING 6
SWIDTH 750 0
DWIDTH 12 0
BBX 9 11 2 0
VVECTOR 7 16
SWIDTH1 0 -1250
DWIDTH1 0 -20
BITMAP 
0800
1C00
1C00
3E00
7F00
FF80
FF80
F780
6B00
0800
3E00
ENDCHAR
STARTCHAR bullet
ENCODING 7
SWIDTH 688 0
DWIDTH 11 0
BBX 5 5 3 3
VVECTOR 6 16
SWIDTH1 0 -1250
DWIDTH1 0 -20
BITMAP 
70
F8
F8
F8
70
ENDCHAR
STARTCHAR invbullet
ENCODING 8
SWIDTH 688 0
DWIDTH 11 0
BBX 11 11 0 0
VVECTOR 6 16
SWIDTH1 0 -1250
DWIDTH1 0 -20
BITMAP 
FFE0
FFE0
FFE0
F1E0
E0E0
E0E0
E0E0
F1E0
FFE0
FFE0
FFE0
ENDCHAR
STARTCHAR circle
ENCODING 9
SWIDTH 688 0
DWIDTH 11 0
BBX 9 9 1 1
VVECTOR 6 16
SWIDTH1 0 -1250
DWIDTH1 0 -20
BITMAP 
1C00
7F00
6300
C180
C180
C180
6300
7F00
1C00
ENDCHAR
STARTCHAR invcircle
ENCODING 10
SWIDTH 688 0
DWIDTH 11 0
BBX 11 11 0 0
VVECTOR 6 16
SWIDTH1 0 -1250
DWIDTH1 0 -20
BITMAP 
FFE0
F1E0
C060
CE60
9F20
9F20
9F20
CE60
C060
F1E0
FFE0
ENDCHAR
STARTCHAR male
ENCODING 11
SWIDTH 750 0
DWIDTH 12 0
BBX 10 10 1 1
VVECTOR 6 16
SWIDTH1 0 -1250
DWIDTH1 0 -20
BITMAP 
07C0
01C0
03C0
7F40
FE40
C600
C600
C600
FE00
7C00
ENDCHAR
STARTCHAR female
ENCODING 12
SWIDTH 750 0
DWIDTH 12 0
BBX 8 12 2 -1
VVECTOR 6 16
SWIDTH1 0 -1250
DWIDTH1 0 -20
BITMAP 
7E
FF
C3
C3
C3
FF
7E
18
7E
7E
18
18
ENDCHAR
STARTCHAR musicalnote
ENCODING 13
SWIDTH 750 0
DWIDTH 12 0
BBX 8 11 2 0
VVECTOR 6 16
SWIDTH1 0 -1250
DWIDTH1 0 -20
BITMAP 
18
1E
1E
1F
1B
1B
1B
7A
F8
F8
F0
ENDCHAR
STARTCHAR musicalnotedbl
ENCODING 14
SWIDTH 750 0
DWIDTH 12 0
BBX 11 11 0 0
VVECTOR 5 16
SWIDTH1 0 -1250
DWIDTH1 0 -20
BITMAP 
00E0
07E0
1E60
18E0
1FE0
1E60
19E0
7BE0
FBE0
FBC0
F000
ENDCHAR
STARTCHAR sun
ENCODING 15
SWIDTH 875 0
DWIDTH 14 0
BBX 14 12 0 0
VVECTOR 7 16
SWIDTH1 0 -1250
DWIDTH1 0 -20
BITMAP 
2310
7338
3FF0
1CE0
1860
F03C
F03C
1860
1CE0
3FF0
7338
2310
ENDCHAR
STARTCHAR triagrt
ENCODING 16
SWIDTH 1000 0
DWIDTH 16 0
BBX 11 11 3 0
VVECTOR 9 16
SWIDTH1 0 -1250
DWIDTH1 0 -20
BITMAP 
8000
E000
F800
FE00
FF80
FFE0
FF80
FE00
F800
E000
8000
ENDCHAR
STARTCHAR triaglf
ENCODING 17
SWIDTH 1000 0
DWIDTH 16 0
BBX 11 11 2 0
VVECTOR 7 16
SWIDTH1 0 -1250
DWIDTH1 0 -20
BITMAP 
0020
00E0
03E0
0FE0
3FE0
FFE0
3FE0
0FE0
03E0
00E0
0020
ENDCHAR
STARTCHAR arrowupdn
ENCODING 18
SWIDTH 750 0
DWIDTH 12 0
BBX 8 10 2 0
VVECTOR 6 16
SWIDTH1 0 -1250
DWIDTH1 0 -20
BITMAP 
18
3C
7E
DB
18
18
DB
7E
3C
18
ENDCHAR
STARTCHAR exclamdbl
ENCODING 19
SWIDTH 500 0
DWIDTH 8 0
BBX 6 12 1 0
VVECTOR 4 16
SWIDTH1 0 -1250
DWIDTH1 0 -20
BITMAP 
CC
CC
CC
CC
CC
CC
CC
CC
CC
00
CC
CC
ENDCHAR
STARTCHAR char14
ENCODING 20
SWIDTH 625 0
DWIDTH 10 0
BBX 8 14 1 -3
VVECTOR 5 16
SWIDTH1 0 -1250
DWIDTH1 0 -20
BITMAP 
7F
FF
F6
F6
F6
76
36
36
36
36
36
36
36
36
ENDCHAR
STARTCHAR char15
ENCODING 21
SWIDTH 562 0
DWIDTH 9 0
BBX 7 13 1 -1
VVECTOR 5 16
SWIDTH1 0 -1250
DWIDTH1 0 -20
BITMAP 
38
44
40
60
90
88
44
22
12
0C
04
44
38
ENDCHAR
STARTCHAR filledrect
ENCODING 22
SWIDTH 750 0
DWIDTH 12 0
BBX 10 5 1 3
VVECTOR 6 16
SWIDTH1 0 -1250
DWIDTH1 0 -20
BITMAP 
FFC0
FFC0
FFC0
FFC0
FFC0
ENDCHAR
STARTCHAR arrowupdnbse
ENCODING 23
SWIDTH 750 0
DWIDTH 12 0
BBX 8 13 2 -3
VVECTOR 6 16
SWIDTH1 0 -1250
DWIDTH1 0 -20
BITMAP 
18
3C
7E
DB
18
18
DB
7E
3C
18
00
7E
7E
ENDCHAR
STARTCHAR arrowup
ENCODING 24
SWIDTH 750 0
DWIDTH 12 0
BBX 8 10 2 0
VVECTOR 6 16
SWIDTH1 0 -1250
DWIDTH1 0 -20
BITMAP 
18
3C
7E
DB
18
18
18
18
18
18
ENDCHAR
STARTCHAR arrowdown
ENCODING 25
SWIDTH 750 0
DWIDTH 12 0
BBX 8 10 2 0
VVECTOR 6 16
SWIDTH1 0 -1250
DWIDTH1 0 -20
BITMAP 
18
18
18
18
18
18
DB
7E
3C
18
ENDCHAR
STARTCHAR arrowright
ENCODING 26
SWIDTH 750 0
DWIDTH 12 0
BBX 10 8 1 1
VVECTOR 6 16
SWIDTH1 0 -1250
DWIDTH1 0 -20
BITMAP 
0200
0300
0180
FFC0
FFC0
0180
0300
0200
ENDCHAR
STARTCHAR arrowleft
ENCODING 27
SWIDTH 750 0
DWIDTH 12 0
BBX 10 8 1 1
VVECTOR 6 16
SWIDTH1 0 -1250
DWIDTH1 0 -20
BITMAP 
1000
3000
6000
FFC0
FFC0
6000
3000
1000
ENDCHAR
STARTCHAR orthogonal
ENCODING 28
SWIDTH 562 0
DWIDTH 9 0
BBX 7 6 1 0
VVECTOR 5 16
SWIDTH1 0 -1250
DWIDTH1 0 -20
BITMAP 
C0
C0
C0
C0
FE
FE
ENDCHAR
STARTCHAR arrowboth
ENCODING 29
SWIDTH 750 0
DWIDTH 12 0
BBX 10 8 1 1
VVECTOR 6 16
SWIDTH1 0 -1250
DWIDTH1 0 -20
BITMAP 
1200
3300
6180
FFC0
FFC0
6180
3300
1200
ENDCHAR
STARTCHAR triagup
ENCODING 30
SWIDTH 750 0
DWIDTH 12 0
BBX 8 7 2 2
VVECTOR 6 16
SWIDTH1 0 -1250
DWIDTH1 0 -20
BITMAP 
18
18
3C
3C
7E
7E
FF
ENDCHAR
STARTCHAR triagdn
ENCODING 31
SWIDTH 750 0
DWIDTH 12 0
BBX 8 7 2 2
VVECTOR 6 16
SWIDTH1 0 -1250
DWIDTH1 0 -20
BITMAP 
FF
7E
7E
3C
3C
18
18
ENDCHAR
STARTCHAR space
ENCODING 32
SWIDTH 250 0
DWIDTH 4 0
BBX 0 0 4 16
VVECTOR 6 16
SWIDTH1 0 -1250
DWIDTH1 0 -20
BITMAP 
ENDCHAR
STARTCHAR exclam
ENCODING 33
SWIDTH 250 0
DWIDTH 4 0
BBX 1 12 2 0
VVECTOR 3 16
SWIDTH1 0 -1250
DWIDTH1 0 -20
BITMAP 
80
80
80
80
80
80
80
80
80
00
00
80
ENDCHAR
STARTCHAR quotedbl
ENCODING 34
SWIDTH 375 0
DWIDTH 6 0
BBX 4 4 1 8
VVECTOR 3 16
SWIDTH1 0 -1250
DWIDTH1 0 -20
BITMAP 
90
90
90
90
ENDCHAR
STARTCHAR numbersign
ENCODING 35
SWIDTH 562 0
DWIDTH 9 0
BBX 8 12 0 0
VVECTOR 4 16
SWIDTH1 0 -1250
DWIDTH1 0 -20
BITMAP 
12
12
12
7F
24
24
24
24
FE
48
48
48
ENDCHAR
STARTCHAR dollar
ENCODING 36
SWIDTH 562 0
DWIDTH 9 0
BBX 7 14 1 -1
VVECTOR 5 16
SWIDTH1 0 -1250
DWIDTH1 0 -20
BITMAP 
10
38
54
92
90
50
38
14
12
12
92
54
38
10
ENDCHAR
STARTCHAR percent
ENCODING 37
SWIDTH 875 0
DWIDTH 14 0
BBX 12 12 1 0
VVECTOR 7 16
SWIDTH1 0 -1250
DWIDTH1 0 -20
BITMAP 
7010
8820
8840
8880
7100
0200
0400
08E0
1110
2110
4110
80E0
ENDCHAR
STARTCHAR ampersand
ENCODING 38
SWIDTH 688 0
DWIDTH 11 0
BBX 10 12 1 0
VVECTOR 7 16
SWIDTH1 0 -1250
DWIDTH1 0 -20
BITMAP 
3000
4800
4800
4800
3000
3000
4800
8480
8280
8100
4280
3C40
ENDCHAR
STARTCHAR quotesingle
ENCODING 39
SWIDTH 188 0
DWIDTH 3 0
BBX 1 4 1 8
VVECTOR 2 16
SWIDTH1 0 -1250
DWIDTH1 0 -20
BITMAP 
80
80
80
80
ENDCHAR
STARTCHAR parenleft
ENCODING 40
SWIDTH 313 0
DWIDTH 5 0
BBX 3 16 1 -3
VVECTOR 3 16
SWIDTH1 0 -1250
DWIDTH1 0 -20
BITMAP 
20
40
40
40
80
80
80
80
80
80
80
80
40
40
40
20
ENDCHAR
STARTCHAR parenright
ENCODING 41
SWIDTH 313 0
DWIDTH 5 0
BBX 3 16 1 -3
VVECTOR 3 16
SWIDTH1 0 -1250
DWIDTH1 0 -20
BITMAP 
80
40
40
40
20
20
20
20
20
20
20
20
40
40
40
80
ENDCHAR
STARTCHAR asterisk
ENCODING 42
SWIDTH 375 0
DWIDTH 6 0
BBX 5 5 1 8
VVECTOR 4 16
SWIDTH1 0 -1250
DWIDTH1 0 -20
BITMAP 
20
A8
70
50
88
ENDCHAR
STARTCHAR plus
ENCODING 43
SWIDTH 562 0
DWIDTH 9 0
BBX 7 7 1 2
VVECTOR 5 16
SWIDTH1 0 -1250
DWIDTH1 0 -20
BITMAP 
10
10
10
FE
10
10
10
ENDCHAR
STARTCHAR comma
ENCODING 44
SWIDTH 250 0
DWIDTH 4 0
BBX 2 2 1 -1
VVECTOR 2 16
SWIDTH1 0 -1250
DWIDTH1 0 -20
BITMAP 
40
80
ENDCHAR
STARTCHAR hyphen
ENCODING 45
SWIDTH 313 0
DWIDTH 5 0
BBX 5 1 0 5
VVECTOR 3 16
SWIDTH1 0 -1250
DWIDTH1 0 -20
BITMAP 
F8
ENDCHAR
STARTCHAR period
ENCODING 46
SWIDTH 250 0
DWIDTH 4 0
BBX 1 1 2 0
VVECTOR 3 16
SWIDTH1 0 -1250
DWIDTH1 0 -20
BITMAP 
80
ENDCHAR
STARTCHAR slash
ENCODING 47
SWIDTH 250 0
DWIDTH 4 0
BBX 4 13 0 -1
VVECTOR 2 16
SWIDTH1 0 -1250
DWIDTH1 0 -20
BITMAP 
10
10
10
10
20
20
20
20
40
40
40
40
80
ENDCHAR
STARTCHAR zero
ENCODING 48
SWIDTH 562 0
DWIDTH 9 0
BBX 7 12 1 0
VVECTOR 5 16
SWIDTH1 0 -1250
DWIDTH1 0 -20
BITMAP 
38
44
44
82
82
82
82
82
82
44
44
38
ENDCHAR
STARTCHAR one
ENCODING 49
SWIDTH 562 0
DWIDTH 9 0
BBX 3 12 2 0
VVECTOR 3 16
SWIDTH1 0 -1250
DWIDTH1 0 -20
BITMAP 
20
E0
20
20
20
20
20
20
20
20
20
20
ENDCHAR
STARTCHAR two
ENCODING 50
SWIDTH 562 0
DWIDTH 9 0
BBX 7 12 1 0
VVECTOR 5 16
SWIDTH1 0 -1250
DWIDTH1 0 -20
BITMAP 
38
44
82
82
02
04
08
10
20
40
80
FE
ENDCHAR
STARTCHAR three
ENCODING 51
SWIDTH 562 0
DWIDTH 9 0
BBX 7 12 1 0
VVECTOR 5 16
SWIDTH1 0 -1250
DWIDTH1 0 -20
BITMAP 
38
44
82
82
04
38
04
02
82
82
44
38
ENDCHAR
STARTCHAR four
ENCODING 52
SWIDTH 562 0
DWIDTH 9 0
BBX 7 12 1 0
VVECTOR 5 16
SWIDTH1 0 -1250
DWIDTH1 0 -20
BITMAP 
04
0C
0C
14
24
24
44
84
FE
04
04
04
ENDCHAR
STARTCHAR five
ENCODING 53
SWIDTH 562 0
DWIDTH 9 0
BBX 7 12 1 0
VVECTOR 5 16
SWIDTH1 0 -1250
DWIDTH1 0 -20
BITMAP 
FE
80
80
80
B8
C4
82
02
82
82
44
38
ENDCHAR
STARTCHAR six
ENCODING 54
SWIDTH 562 0
DWIDTH 9 0
BBX 7 12 1 0
VVECTOR 5 16
SWIDTH1 0 -1250
DWIDTH1 0 -20
BITMAP 
38
44
82
80
B8
C4
82
82
82
82
44
38
ENDCHAR
STARTCHAR seven
ENCODING 55
SWIDTH 562 0
DWIDTH 9 0
BBX 7 12 1 0
VVECTOR 5 16
SWIDTH1 0 -1250
DWIDTH1 0 -20
BITMAP 
FE
02
02
04
04
08
08
08
10
10
10
10
ENDCHAR
STARTCHAR eight
ENCODING 56
SWIDTH 562 0
DWIDTH 9 0
BBX 7 12 1 0
VVECTOR 5 16
SWIDTH1 0 -1250
DWIDTH1 0 -20
BITMAP 
38
44
82
82
44
38
44
82
82
82
44
38
ENDCHAR
STARTCHAR nine
ENCODING 57
SWIDTH 562 0
DWIDTH 9 0
BBX 7 12 1 0
VVECTOR 5 16
SWIDTH1 0 -1250
DWIDTH1 0 -20
BITMAP 
38
44
82
82
82
82
46
3A
02
82
44
38
ENDCHAR
STARTCHAR colon
ENCODING 58
SWIDTH 250 0
DWIDTH 4 0
BBX 1 9 2 0
VVECTOR 3 16
SWIDTH1 0 -1250
DWIDTH1 0 -20
BITMAP 
80
00
00
00
00
00
00
00
80
ENDCHAR
STARTCHAR semicolon
ENCODING 59
SWIDTH 250 0
DWIDTH 4 0
BBX 2 10 1 -1
VVECTOR 2 16
SWIDTH1 0 -1250
DWIDTH1 0 -20
BITMAP 
40
00
00
00
00
00
00
00
40
80
ENDCHAR
STARTCHAR less
ENCODING 60
SWIDTH 562 0
DWIDTH 9 0
BBX 7 7 1 2
VVECTOR 5 16
SWIDTH1 0 -1250
DWIDTH1 0 -20
BITMAP 
06
18
60
80
60
18
06
ENDCHAR
STARTCHAR equal
ENCODING 61
SWIDTH 562 0
DWIDTH 9 0
BBX 7 4 1 4
VVECTOR 5 16
SWIDTH1 0 -1250
DWIDTH1 0 -20
BITMAP 
FE
00
00
FE
ENDCHAR
STARTCHAR greater
ENCODING 62
SWIDTH 562 0
DWIDTH 9 0
BBX 7 7 1 2
VVECTOR 5 16
SWIDTH1 0 -1250
DWIDTH1 0 -20
BITMAP 
C0
30
0C
02
0C
30
C0
ENDCHAR
STARTCHAR question
ENCODING 63
SWIDTH 562 0
DWIDTH 9 0
BBX 7 12 1 0
VVECTOR 5 16
SWIDTH1 0 -1250
DWIDTH1 0 -20
BITMAP 
38
44
82
82
02
04
08
10
10
00
00
10
ENDCHAR
STARTCHAR at
ENCODING 64
SWIDTH 1000 0
DWIDTH 16 0
BBX 14 12 1 0
VVECTOR 8 16
SWIDTH1 0 -1250
DWIDTH1 0 -20
BITMAP 
07E0
1810
2008
4384
4444
8844
8844
88C8
8770
4000
3030
0FC0
ENDCHAR
STARTCHAR A
ENCODING 65
SWIDTH 688 0
DWIDTH 11 0
BBX 11 12 0 0
VVECTOR 6 16
SWIDTH1 0 -1250
DWIDTH1 0 -20
BITMAP 
0400
0400
0A00
0A00
1100
1100
2080
2080
7FC0
4040
8020
8020
ENDCHAR
STARTCHAR B
ENCODING 66
SWIDTH 688 0
DWIDTH 11 0
BBX 8 12 2 0
VVECTOR 7 16
SWIDTH1 0 -1250
DWIDTH1 0 -20
BITMAP 
FC
82
81
81
82
FC
82
81
81
81
82
FC
ENDCHAR
STARTCHAR C
ENCODING 67
SWIDTH 688 0
DWIDTH 11 0
BBX 10 12 1 0
VVECTOR 7 16
SWIDTH1 0 -1250
DWIDTH1 0 -20
BITMAP 
1E00
6180
4080
8040
8000
8000
8000
8000
8040
4080
6180
1E00
ENDCHAR
STARTCHAR D
ENCODING 68
SWIDTH 750 0
DWIDTH 12 0
BBX 9 12 2 0
VVECTOR 7 16
SWIDTH1 0 -1250
DWIDTH1 0 -20
BITMAP 
FC00
8300
8100
8080
8080
8080
8080
8080
8080
8100
8300
FC00
ENDCHAR
STARTCHAR E
ENCODING 69
SWIDTH 688 0
DWIDTH 11 0
BBX 8 12 2 0
VVECTOR 7 16
SWIDTH1 0 -1250
DWIDTH1 0 -20
BITMAP 
FF
80
80
80
80
FE
80
80
80
80
80
FF
ENDCHAR
STARTCHAR F
ENCODING 70
SWIDTH 625 0
DWIDTH 10 0
BBX 8 12 2 0
VVECTOR 7 16
SWIDTH1 0 -1250
DWIDTH1 0 -20
BITMAP 
FF
80
80
80
80
FE
80
80
80
80
80
80
ENDCHAR
STARTCHAR G
ENCODING 71
SWIDTH 812 0
DWIDTH 13 0
BBX 10 12 1 0
VVECTOR 6 16
SWIDTH1 0 -1250
DWIDTH1 0 -20
BITMAP 
1E00
6180
4080
8040
8000
8000
87C0
8040
8040
40C0
61C0
1E40
ENDCHAR
STARTCHAR H
ENCODING 72
SWIDTH 750 0
DWIDTH 12 0
BBX 8 12 2 0
VVECTOR 6 16
SWIDTH1 0 -1250
DWIDTH1 0 -20
BITMAP 
81
81
81
81
81
FF
81
81
81
81
81
81
ENDCHAR
STARTCHAR I
ENCODING 73
SWIDTH 313 0
DWIDTH 5 0
BBX 1 12 2 0
VVECTOR 3 16
SWIDTH1 0 -1250
DWIDTH1 0 -20
BITMAP 
80
80
80
80
80
80
80
80
80
80
80
80
ENDCHAR
STARTCHAR J
ENCODING 74
SWIDTH 500 0
DWIDTH 8 0
BBX 6 12 0 0
VVECTOR 2 16
SWIDTH1 0 -1250
DWIDTH1 0 -20
BITMAP 
04
04
04
04
04
04
04
04
84
84
84
78
ENDCHAR
STARTCHAR K
ENCODING 75
SWIDTH 625 0
DWIDTH 10 0
BBX 8 12 2 0
VVECTOR 7 16
SWIDTH1 0 -1250
DWIDTH1 0 -20
BITMAP 
82
84
88
90
A0
C0
A0
90
88
84
82
81
ENDCHAR
STARTCHAR L
ENCODING 76
SWIDTH 562 0
DWIDTH 9 0
BBX 7 12 2 0
VVECTOR 7 16
SWIDTH1 0 -1250
DWIDTH1 0 -20
BITMAP 
80
80
80
80
80
80
80
80
80
80
80
FE
ENDCHAR
STARTCHAR M
ENCODING 77
SWIDTH 812 0
DWIDTH 13 0
BBX 9 12 2 0
VVECTOR 7 16
SWIDTH1 0 -1250
DWIDTH1 0 -20
BITMAP 
8080
8080
C180
C180
A280
A280
9480
9480
8880
8880
8080
8080
ENDCHAR
STARTCHAR N
ENCODING 78
SWIDTH 688 0
DWIDTH 11 0
BBX 7 12 2 0
VVECTOR 6 16
SWIDTH1 0 -1250
DWIDTH1 0 -20
BITMAP 
82
C2
C2
A2
A2
92
92
8A
8A
86
86
82
ENDCHAR
STARTCHAR O
ENCODING 79
SWIDTH 750 0
DWIDTH 12 0
BBX 10 12 1 0
VVECTOR 6 16
SWIDTH1 0 -1250
DWIDTH1 0 -20
BITMAP 
1E00
6180
4080
8040
8040
8040
8040
8040
8040
4080
6180
1E00
ENDCHAR
STARTCHAR P
ENCODING 80
SWIDTH 625 0
DWIDTH 10 0
BBX 8 12 2 0
VVECTOR 7 16
SWIDTH1 0 -1250
DWIDTH1 0 -20
BITMAP 
FC
82
81
81
81
82
FC
80
80
80
80
80
ENDCHAR
STARTCHAR Q
ENCODING 81
SWIDTH 750 0
DWIDTH 12 0
BBX 10 13 1 -1
VVECTOR 6 16
SWIDTH1 0 -1250
DWIDTH1 0 -20
BITMAP 
1E00
6180
4080
8040
8040
8040
8040
8040
8440
4280
6180
1E80
0040
ENDCHAR
STARTCHAR R
ENCODING 82
SWIDTH 750 0
DWIDTH 12 0
BBX 9 12 2 0
VVECTOR 7 16
SWIDTH1 0 -1250
DWIDTH1 0 -20
BITMAP 
FC00
8200
8100
8100
8100
8200
FC00
8200
8100
8100
8100
8080
ENDCHAR
STARTCHAR S
ENCODING 83
SWIDTH 688 0
DWIDTH 11 0
BBX 9 12 1 0
VVECTOR 6 16
SWIDTH1 0 -1250
DWIDTH1 0 -20
BITMAP 
3E00
4100
8080
8000
4000
3E00
0100
0080
0080
8080
4100
3E00
ENDCHAR
STARTCHAR T
ENCODING 84
SWIDTH 562 0
DWIDTH 9 0
BBX 9 12 0 0
VVECTOR 5 16
SWIDTH1 0 -1250
DWIDTH1 0 -20
BITMAP 
FF80
0800
0800
0800
0800
0800
0800
0800
0800
0800
0800
0800
ENDCHAR
STARTCHAR U
ENCODING 85
SWIDTH 750 0
DWIDTH 12 0
BBX 8 12 2 0
VVECTOR 6 16
SWIDTH1 0 -1250
DWIDTH1 0 -20
BITMAP 
81
81
81
81
81
81
81
81
81
81
42
3C
ENDCHAR
STARTCHAR V
ENCODING 86
SWIDTH 688 0
DWIDTH 11 0
BBX 11 12 0 0
VVECTOR 6 16
SWIDTH1 0 -1250
DWIDTH1 0 -20
BITMAP 
8020
8020
4040
4040
2080
2080
1100
1100
0A00
0A00
0400
0400
ENDCHAR
STARTCHAR W
ENCODING 87
SWIDTH 938 0
DWIDTH 15 0
BBX 15 12 0 0
VVECTOR 8 16
SWIDTH1 0 -1250
DWIDTH1 0 -20
BITMAP 
8002
8102
4104
4104
4284
2288
2288
1450
1450
0820
0820
0820
ENDCHAR
STARTCHAR X
ENCODING 88
SWIDTH 688 0
DWIDTH 11 0
BBX 11 12 0 0
VVECTOR 6 16
SWIDTH1 0 -1250
DWIDTH1 0 -20
BITMAP 
8020
4040
2080
1100
0A00
0400
0400
0A00
1100
2080
4040
8020
ENDCHAR
STARTCHAR Y
ENCODING 89
SWIDTH 688 0
DWIDTH 11 0
BBX 11 12 0 0
VVECTOR 6 16
SWIDTH1 0 -1250
DWIDTH1 0 -20
BITMAP 
8020
4040
2080
1100
0A00
0400
0400
0400
0400
0400
0400
0400
ENDCHAR
STARTCHAR Z
ENCODING 90
SWIDTH 625 0
DWIDTH 10 0
BBX 10 12 0 0
VVECTOR 5 16
SWIDTH1 0 -1250
DWIDTH1 0 -20
BITMAP 
7FC0
0040
0080
0100
0200
0400
0800
1000
2000
4000
8000
FF80
ENDCHAR
STARTCHAR bracketleft
ENCODING 91
SWIDTH 250 0
DWIDTH 4 0
BBX 2 15 1 -3
VVECTOR 2 16
SWIDTH1 0 -1250
DWIDTH1 0 -20
BITMAP 
C0
80
80
80
80
80
80
80
80
80
80
80
80
80
C0
ENDCHAR
STARTCHAR backslash
ENCODING 92
SWIDTH 250 0
DWIDTH 4 0
BBX 4 13 0 -1
VVECTOR 2 16
SWIDTH1 0 -1250
DWIDTH1 0 -20
BITMAP 
80
80
80
80
40
40
40
40
20
20
20
20
10
ENDCHAR
STARTCHAR bracketright
ENCODING 93
SWIDTH 250 0
DWIDTH 4 0
BBX 2 15 1 -3
VVECTOR 2 16
SWIDTH1 0 -1250
DWIDTH1 0 -20
BITMAP 
C0
40
40
40
40
40
40
40
40
40
40
40
40
40
C0
ENDCHAR
STARTCHAR asciicircum
ENCODING 94
SWIDTH 438 0
DWIDTH 7 0
BBX 7 3 0 12
VVECTOR 4 16
SWIDTH1 0 -1250
DWIDTH1 0 -20
BITMAP 
38
7C
C6
ENDCHAR
STARTCHAR underscore
ENCODING 95
SWIDTH 562 0
DWIDTH 9 0
BBX 9 1 0 -2
VVECTOR 5 16
SWIDTH1 0 -1250
DWIDTH1 0 -20
BITMAP 
FF80
ENDCHAR
STARTCHAR grave
ENCODING 96
SWIDTH 313 0
DWIDTH 5 0
BBX 3 3 1 10
VVECTOR 3 16
SWIDTH1 0 -1250
DWIDTH1 0 -20
BITMAP 
80
40
20
ENDCHAR
STARTCHAR a
ENCODING 97
SWIDTH 562 0
DWIDTH 9 0
BBX 8 9 1 0
VVECTOR 6 16
SWIDTH1 0 -1250
DWIDTH1 0 -20
BITMAP 
7C
82
02
02
7E
82
82
82
7D
ENDCHAR
STARTCHAR b
ENCODING 98
SWIDTH 562 0
DWIDTH 9 0
BBX 7 12 1 0
VVECTOR 5 16
SWIDTH1 0 -1250
DWIDTH1 0 -20
BITMAP 
80
80
80
B8
C4
82
82
82
82
82
C4
B8
ENDCHAR
STARTCHAR c
ENCODING 99
SWIDTH 500 0
DWIDTH 8 0
BBX 7 9 1 0
VVECTOR 5 16
SWIDTH1 0 -1250
DWIDTH1 0 -20
BITMAP 
38
44
82
80
80
80
82
44
38
ENDCHAR
STARTCHAR d
ENCODING 100
SWIDTH 562 0
DWIDTH 9 0
BBX 7 12 1 0
VVECTOR 5 16
SWIDTH1 0 -1250
DWIDTH1 0 -20
BITMAP 
02
02
02
3A
46
82
82
82
82
82
46
3A
ENDCHAR
STARTCHAR e
ENCODING 101
SWIDTH 562 0
DWIDTH 9 0
BBX 7 9 1 0
VVECTOR 5 16
SWIDTH1 0 -1250
DWIDTH1 0 -20
BITMAP 
38
44
82
82
FE
80
82
44
38
ENDCHAR
STARTCHAR f
ENCODING 102
SWIDTH 313 0
DWIDTH 5 0
BBX 5 12 0 0
VVECTOR 3 16
SWIDTH1 0 -1250
DWIDTH1 0 -20
BITMAP 
18
20
20
F8
20
20
20
20
20
20
20
20
ENDCHAR
STARTCHAR g
ENCODING 103
SWIDTH 562 0
DWIDTH 9 0
BBX 7 13 1 -4
VVECTOR 5 16
SWIDTH1 0 -1250
DWIDTH1 0 -20
BITMAP 
3A
46
82
82
82
82
82
46
3A
02
02
04
78
ENDCHAR
STARTCHAR h
ENCODING 104
SWIDTH 562 0
DWIDTH 9 0
BBX 7 12 1 0
VVECTOR 5 16
SWIDTH1 0 -1250
DWIDTH1 0 -20
BITMAP 
80
80
80
B8
C4
82
82
82
82
82
82
82
ENDCHAR
STARTCHAR i
ENCODING 105
SWIDTH 188 0
DWIDTH 3 0
BBX 1 12 1 0
VVECTOR 2 16
SWIDTH1 0 -1250
DWIDTH1 0 -20
BITMAP 
80
00
00
80
80
80
80
80
80
80
80
80
ENDCHAR
STARTCHAR j
ENCODING 106
SWIDTH 188 0
DWIDTH 3 0
BBX 2 16 0 -4
VVECTOR 1 16
SWIDTH1 0 -1250
DWIDTH1 0 -20
BITMAP 
40
00
00
40
40
40
40
40
40
40
40
40
40
40
40
80
ENDCHAR
STARTCHAR k
ENCODING 107
SWIDTH 500 0
DWIDTH 8 0
BBX 7 12 1 0
VVECTOR 5 16
SWIDTH1 0 -1250
DWIDTH1 0 -20
BITMAP 
80
80
80
84
88
90
A0
E0
90
88
84
82
ENDCHAR
STARTCHAR l
ENCODING 108
SWIDTH 188 0
DWIDTH 3 0
BBX 1 12 1 0
VVECTOR 2 16
SWIDTH1 0 -1250
DWIDTH1 0 -20
BITMAP 
80
80
80
80
80
80
80
80
80
80
80
80
ENDCHAR
STARTCHAR m
ENCODING 109
SWIDTH 812 0
DWIDTH 13 0
BBX 11 9 1 0
VVECTOR 7 16
SWIDTH1 0 -1250
DWIDTH1 0 -20
BITMAP 
B180
CA40
8420
8420
8420
8420
8420
8420
8420
ENDCHAR
STARTCHAR n
ENCODING 110
SWIDTH 562 0
DWIDTH 9 0
BBX 7 9 1 0
VVECTOR 5 16
SWIDTH1 0 -1250
DWIDTH1 0 -20
BITMAP 
B8
C4
82
82
82
82
82
82
82
ENDCHAR
STARTCHAR o
ENCODING 111
SWIDTH 562 0
DWIDTH 9 0
BBX 7 9 1 0
VVECTOR 5 16
SWIDTH1 0 -1250
DWIDTH1 0 -20
BITMAP 
38
44
82
82
82
82
82
44
38
ENDCHAR
STARTCHAR p
ENCODING 112
SWIDTH 562 0
DWIDTH 9 0
BBX 7 13 1 -4
VVECTOR 5 16
SWIDTH1 0 -1250
DWIDTH1 0 -20
BITMAP 
B8
C4
82
82
82
82
82
C4
B8
80
80
80
80
ENDCHAR
STARTCHAR q
ENCODING 113
SWIDTH 562 0
DWIDTH 9 0
BBX 7 13 1 -4
VVECTOR 5 16
SWIDTH1 0 -1250
DWIDTH1 0 -20
BITMAP 
3A
46
82
82
82
82
82
46
3A
02
02
02
02
ENDCHAR
STARTCHAR r
ENCODING 114
SWIDTH 313 0
DWIDTH 5 0
BBX 4 9 1 0
VVECTOR 4 16
SWIDTH1 0 -1250
DWIDTH1 0 -20
BITMAP 
B0
C0
80
80
80
80
80
80
80
ENDCHAR
STARTCHAR s
ENCODING 115
SWIDTH 500 0
DWIDTH 8 0
BBX 6 9 1 0
VVECTOR 4 16
SWIDTH1 0 -1250
DWIDTH1 0 -20
BITMAP 
78
84
80
80
78
04
04
84
78
ENDCHAR
STARTCHAR t
ENCODING 116
SWIDTH 313 0
DWIDTH 5 0
BBX 5 12 0 0
VVECTOR 3 16
SWIDTH1 0 -1250
DWIDTH1 0 -20
BITMAP 
20
20
20
F8
20
20
20
20
20
20
20
10
ENDCHAR
STARTCHAR u
ENCODING 117
SWIDTH 562 0
DWIDTH 9 0
BBX 7 9 1 0
VVECTOR 5 16
SWIDTH1 0 -1250
DWIDTH1 0 -20
BITMAP 
82
82
82
82
82
82
82
46
3A
ENDCHAR
STARTCHAR v
ENCODING 118
SWIDTH 438 0
DWIDTH 7 0
BBX 7 9 0 0
VVECTOR 4 16
SWIDTH1 0 -1250
DWIDTH1 0 -20
BITMAP 
82
82
44
44
28
28
10
10
10
ENDCHAR
STARTCHAR w
ENCODING 119
SWIDTH 688 0
DWIDTH 11 0
BBX 11 9 0 0
VVECTOR 6 16
SWIDTH1 0 -1250
DWIDTH1 0 -20
BITMAP 
8020
8420
4440
4440
2A80
2A80
1100
1100
1100
ENDCHAR
STARTCHAR x
ENCODING 120
SWIDTH 438 0
DWIDTH 7 0
BBX 7 9 0 0
VVECTOR 4 16
SWIDTH1 0 -1250
DWIDTH1 0 -20
BITMAP 
82
44
44
28
10
28
44
44
82
ENDCHAR
STARTCHAR y
ENCODING 121
SWIDTH 438 0
DWIDTH 7 0
BBX 7 13 0 -4
VVECTOR 4 16
SWIDTH1 0 -1250
DWIDTH1 0 -20
BITMAP 
82
82
44
44
28
28
10
10
20
20
40
40
80
ENDCHAR
STARTCHAR z
ENCODING 122
SWIDTH 500 0
DWIDTH 8 0
BBX 6 9 1 0
VVECTOR 4 16
SWIDTH1 0 -1250
DWIDTH1 0 -20
BITMAP 
FC
04
08
10
20
20
40
80
FC
ENDCHAR
STARTCHAR braceleft
ENCODING 123
SWIDTH 313 0
DWIDTH 5 0
BBX 3 15 1 -3
VVECTOR 3 16
SWIDTH1 0 -1250
DWIDTH1 0 -20
BITMAP 
20
40
40
40
40
40
40
80
40
40
40
40
40
40
20
ENDCHAR
STARTCHAR bar
ENCODING 124
SWIDTH 313 0
DWIDTH 5 0
BBX 1 13 2 -1
VVECTOR 3 16
SWIDTH1 0 -1250
DWIDTH1 0 -20
BITMAP 
80
80
80
80
80
80
80
80
80
80
80
80
80
ENDCHAR
STARTCHAR braceright
ENCODING 125
SWIDTH 313 0
DWIDTH 5 0
BBX 3 15 1 -3
VVECTOR 3 16
SWIDTH1 0 -1250
DWIDTH1 0 -20
BITMAP 
80
40
40
40
40
40
40
20
40
40
40
40
40
40
80
ENDCHAR
STARTCHAR asciitilde
ENCODING 126
SWIDTH 438 0
DWIDTH 7 0
BBX 7 3 0 12
VVECTOR 4 16
SWIDTH1 0 -1250
DWIDTH1 0 -20
BITMAP 
36
7C
D8
ENDCHAR
STARTCHAR house
ENCODING 127
SWIDTH 750 0
DWIDTH 12 0
BBX 10 11 1 0
VVECTOR 6 16
SWIDTH1 0 -1250
DWIDTH1 0 -20
BITMAP 
0C00
1E00
3F00
7380
E1C0
C0C0
C0C0
C0C0
C0C0
FFC0
FFC0
ENDCHAR
STARTCHAR Ccedilla
ENCODING 128
SWIDTH 688 0
DWIDTH 11 0
BBX 10 16 1 -4
VVECTOR 7 16
SWIDTH1 0 -1250
DWIDTH1 0 -20
BITMAP 
1E00
6180
4080
8040
8000
8000
8000
8000
8040
4080
6180
1E00
0400
0200
0200
0C00
ENDCHAR
STARTCHAR udieresis
ENCODING 129
SWIDTH 562 0
DWIDTH 9 0
BBX 7 12 1 0
VVECTOR 5 16
SWIDTH1 0 -1250
DWIDTH1 0 -20
BITMAP 
44
00
00
82
82
82
82
82
82
82
46
3A
ENDCHAR
STARTCHAR eacute
ENCODING 130
SWIDTH 562 0
DWIDTH 9 0
BBX 7 13 1 0
VVECTOR 5 16
SWIDTH1 0 -1250
DWIDTH1 0 -20
BITMAP 
08
10
20
00
38
44
82
82
FE
80
82
44
38
ENDCHAR
STARTCHAR acircumflex
ENCODING 131
SWIDTH 562 0
DWIDTH 9 0
BBX 8 13 1 0
VVECTOR 6 16
SWIDTH1 0 -1250
DWIDTH1 0 -20
BITMAP 
10
28
44
00
7C
82
02
02
7E
82
82
82
7D
ENDCHAR
STARTCHAR adieresis
ENCODING 132
SWIDTH 562 0
DWIDTH 9 0
BBX 8 12 1 0
VVECTOR 6 16
SWIDTH1 0 -1250
DWIDTH1 0 -20
BITMAP 
44
00
00
7C
82
02
02
7E
82
82
82
7D
ENDCHAR
STARTCHAR agrave
ENCODING 133
SWIDTH 562 0
DWIDTH 9 0
BBX 8 13 1 0
VVECTOR 6 16
SWIDTH1 0 -1250
DWIDTH1 0 -20
BITMAP 
20
10
08
00
7C
82
02
02
7E
82
82
82
7D
ENDCHAR
STARTCHAR aring
ENCODING 134
SWIDTH 562 0
DWIDTH 9 0
BBX 8 14 1 0
VVECTOR 6 16
SWIDTH1 0 -1250
DWIDTH1 0 -20
BITMAP 
38
44
44
38
00
7C
82
02
02
7E
82
82
82
7D
ENDCHAR
STARTCHAR ccedilla
ENCODING 135
SWIDTH 500 0
DWIDTH 8 0
BBX 7 13 1 -4
VVECTOR 5 16
SWIDTH1 0 -1250
DWIDTH1 0 -20
BITMAP 
38
44
82
80
80
80
82
44
38
10
08
08
30
ENDCHAR
STARTCHAR ecircumflex
ENCODING 136
SWIDTH 562 0
DWIDTH 9 0
BBX 7 13 1 0
VVECTOR 5 16
SWIDTH1 0 -1250
DWIDTH1 0 -20
BITMAP 
10
28
44
00
38
44
82
82
FE
80
82
44
38
ENDCHAR
STARTCHAR edieresis
ENCODING 137
SWIDTH 562 0
DWIDTH 9 0
BBX 7 12 1 0
VVECTOR 5 16
SWIDTH1 0 -1250
DWIDTH1 0 -20
BITMAP 
44
00
00
38
44
82
82
FE
80
82
44
38
ENDCHAR
STARTCHAR egrave
ENCODING 138
SWIDTH 562 0
DWIDTH 9 0
BBX 7 13 1 0
VVECTOR 5 16
SWIDTH1 0 -1250
DWIDTH1 0 -20
BITMAP 
20
10
08
00
38
44
82
82
FE
80
82
44
38
ENDCHAR
STARTCHAR idieresis
ENCODING 139
SWIDTH 188 0
DWIDTH 3 0
BBX 3 12 0 0
VVECTOR 2 16
SWIDTH1 0 -1250
DWIDTH1 0 -20
BITMAP 
A0
00
00
40
40
40
40
40
40
40
40
40
ENDCHAR
STARTCHAR icircumflex
ENCODING 140
SWIDTH 188 0
DWIDTH 3 0
BBX 3 13 0 0
VVECTOR 2 16
SWIDTH1 0 -1250
DWIDTH1 0 -20
BITMAP 
40
A0
00
00
40
40
40
40
40
40
40
40
40
ENDCHAR
STARTCHAR igrave
ENCODING 141
SWIDTH 188 0
DWIDTH 3 0
BBX 3 13 0 0
VVECTOR 2 16
SWIDTH1 0 -1250
DWIDTH1 0 -20
BITMAP 
80
40
20
00
40
40
40
40
40
40
40
40
40
ENDCHAR
STARTCHAR Adieresis
ENCODING 142
SWIDTH 688 0
DWIDTH 11 0
BBX 11 15 0 0
VVECTOR 6 16
SWIDTH1 0 -1250
DWIDTH1 0 -20
BITMAP 
1100
0000
0000
0400
0400
0A00
0A00
1100
1100
2080
2080
7FC0
4040
8020
8020
ENDCHAR
STARTCHAR Aring
ENCODING 143
SWIDTH 688 0
DWIDTH 11 0
BBX 11 16 0 0
VVECTOR 6 16
SWIDTH1 0 -1250
DWIDTH1 0 -20
BITMAP 
0E00
1100
1100
0E00
0400
0400
0A00
0A00
1100
1100
2080
2080
7FC0
4040
8020
8020
ENDCHAR
STARTCHAR Eacute
ENCODING 144
SWIDTH 688 0
DWIDTH 11 0
BBX 8 16 2 0
VVECTOR 7 16
SWIDTH1 0 -1250
DWIDTH1 0 -20
BITMAP 
04
08
10
00
FF
80
80
80
80
FE
80
80
80
80
80
FF
ENDCHAR
STARTCHAR ae
ENCODING 145
SWIDTH 938 0
DWIDTH 15 0
BBX 13 9 1 0
VVECTOR 8 16
SWIDTH1 0 -1250
DWIDTH1 0 -20
BITMAP 
7CE0
8310
0208
0208
7FF8
8200
8208
8310
7CE0
ENDCHAR
STARTCHAR AE
ENCODING 146
SWIDTH 1000 0
DWIDTH 16 0
BBX 15 12 0 0
VVECTOR 7 16
SWIDTH1 0 -1250
DWIDTH1 0 -20
BITMAP 
07FE
0500
0900
0900
1100
11FC
2100
2100
7F00
4100
8100
81FE
ENDCHAR
STARTCHAR ocircumflex
ENCODING 147
SWIDTH 562 0
DWIDTH 9 0
BBX 7 13 1 0
VVECTOR 5 16
SWIDTH1 0 -1250
DWIDTH1 0 -20
BITMAP 
10
28
44
00
38
44
82
82
82
82
82
44
38
ENDCHAR
STARTCHAR odieresis
ENCODING 148
SWIDTH 562 0
DWIDTH 9 0
BBX 7 12 1 0
VVECTOR 5 16
SWIDTH1 0 -1250
DWIDTH1 0 -20
BITMAP 
44
00
00
38
44
82
82
82
82
82
44
38
ENDCHAR
STARTCHAR ograve
ENCODING 149
SWIDTH 562 0
DWIDTH 9 0
BBX 7 13 1 0
VVECTOR 5 16
SWIDTH1 0 -1250
DWIDTH1 0 -20
BITMAP 
20
10
08
00
38
44
82
82
82
82
82
44
38
ENDCHAR
STARTCHAR ucircumflex
ENCODING 150
SWIDTH 562 0
DWIDTH 9 0
BBX 7 13 1 0
VVECTOR 5 16
SWIDTH1 0 -1250
DWIDTH1 0 -20
BITMAP 
10
28
44
00
82
82
82
82
82
82
82
46
3A
ENDCHAR
STARTCHAR ugrave
ENCODING 151
SWIDTH 562 0
DWIDTH 9 0
BBX 7 13 1 0
VVECTOR 5 16
SWIDTH1 0 -1250
DWIDTH1 0 -20
BITMAP 
20
10
08
00
82
82
82
82
82
82
82
46
3A
ENDCHAR
STARTCHAR ydieresis
ENCODING 152
SWIDTH 438 0
DWIDTH 7 0
BBX 7 16 0 -4
VVECTOR 4 16
SWIDTH1 0 -1250
DWIDTH1 0 -20
BITMAP 
44
00
00
82
82
44
44
28
28
10
10
20
20
40
40
80
ENDCHAR
STARTCHAR Odieresis
ENCODING 153
SWIDTH 750 0
DWIDTH 12 0
BBX 10 15 1 0
VVECTOR 6 16
SWIDTH1 0 -1250
DWIDTH1 0 -20
BITMAP 
2100
0000
0000
1E00
6180
4080
8040
8040
8040
8040
8040
8040
4080
6180
1E00
ENDCHAR
STARTCHAR Udieresis
ENCODING 154
SWIDTH 750 0
DWIDTH 12 0
BBX 8 15 2 0
VVECTOR 6 16
SWIDTH1 0 -1250
DWIDTH1 0 -20
BITMAP 
42
00
00
81
81
81
81
81
81
81
81
81
81
42
3C
ENDCHAR
STARTCHAR oslash
ENCODING 155
SWIDTH 562 0
DWIDTH 9 0
BBX 7 9 1 0
VVECTOR 5 16
SWIDTH1 0 -1250
DWIDTH1 0 -20
BITMAP 
3A
44
8A
8A
92
A2
A2
44
B8
ENDCHAR
STARTCHAR sterling
ENCODING 156
SWIDTH 562 0
DWIDTH 9 0
BBX 7 12 1 0
VVECTOR 5 16
SWIDTH1 0 -1250
DWIDTH1 0 -20
BITMAP 
38
44
44
40
20
FC
20
20
20
40
40
FE
ENDCHAR
STARTCHAR Oslash
ENCODING 157
SWIDTH 750 0
DWIDTH 12 0
BBX 10 12 1 0
VVECTOR 6 16
SWIDTH1 0 -1250
DWIDTH1 0 -20
BITMAP 
1E40
6180
4180
8240
8240
8440
8840
9040
9040
6080
6180
9E00
ENDCHAR
STARTCHAR multiply
ENCODING 158
SWIDTH 625 0
DWIDTH 10 0
BBX 8 8 1 1
VVECTOR 5 16
SWIDTH1 0 -1250
DWIDTH1 0 -20
BITMAP 
42
E7
7E
3C
3C
7E
E7
42
ENDCHAR
STARTCHAR florin
ENCODING 159
SWIDTH 562 0
DWIDTH 9 0
BBX 9 15 0 -3
VVECTOR 5 16
SWIDTH1 0 -1250
DWIDTH1 0 -20
BITMAP 
0380
0780
0E00
0C00
3F00
3F00
0C00
1C00
1800
1800
1800
3800
3000
F000
E000
ENDCHAR
STARTCHAR aacute
ENCODING 160
SWIDTH 562 0
DWIDTH 9 0
BBX 8 13 1 0
VVECTOR 6 16
SWIDTH1 0 -1250
DWIDTH1 0 -20
BITMAP 
08
10
20
00
7C
82
02
02
7E
82
82
82
7D
ENDCHAR
STARTCHAR iacute
ENCODING 161
SWIDTH 188 0
DWIDTH 3 0
BBX 3 13 0 0
VVECTOR 2 16
SWIDTH1 0 -1250
DWIDTH1 0 -20
BITMAP 
20
40
80
00
40
40
40
40
40
40
40
40
40
ENDCHAR
STARTCHAR oacute
ENCODING 162
SWIDTH 562 0
DWIDTH 9 0
BBX 7 13 1 0
VVECTOR 5 16
SWIDTH1 0 -1250
DWIDTH1 0 -20
BITMAP 
08
10
20
00
38
44
82
82
82
82
82
44
38
ENDCHAR
STARTCHAR uacute
ENCODING 163
SWIDTH 562 0
DWIDTH 9 0
BBX 7 13 1 0
VVECTOR 5 16
SWIDTH1 0 -1250
DWIDTH1 0 -20
BITMAP 
08
10
20
00
82
82
82
82
82
82
82
46
3A
ENDCHAR
STARTCHAR ntilde
ENCODING 164
SWIDTH 562 0
DWIDTH 9 0
BBX 7 13 1 0
VVECTOR 5 16
SWIDTH1 0 -1250
DWIDTH1 0 -20
BITMAP 
62
92
8C
00
B8
C4
82
82
82
82
82
82
82
ENDCHAR
STARTCHAR Ntilde
ENCODING 165
SWIDTH 688 0
DWIDTH 11 0
BBX 7 16 2 0
VVECTOR 6 16
SWIDTH1 0 -1250
DWIDTH1 0 -20
BITMAP 
62
92
8C
00
82
C2
C2
A2
A2
92
92
8A
8A
86
86
82
ENDCHAR
STARTCHAR ordfeminine
ENCODING 166
SWIDTH 375 0
DWIDTH 6 0
BBX 4 7 1 5
VVECTOR 3 16
SWIDTH1 0 -1250
DWIDTH1 0 -20
BITMAP 
60
10
70
90
70
00
F0
ENDCHAR
STARTCHAR ordmasculine
ENCODING 167
SWIDTH 375 0
DWIDTH 6 0
BBX 4 7 1 5
VVECTOR 3 16
SWIDTH1 0 -1250
DWIDTH1 0 -20
BITMAP 
60
90
90
90
60
00
F0
ENDCHAR
STARTCHAR questiondown
ENCODING 168
SWIDTH 562 0
DWIDTH 9 0
BBX 7 12 1 -3
VVECTOR 5 16
SWIDTH1 0 -1250
DWIDTH1 0 -20
BITMAP 
10
00
00
10
10
20
40
80
80
82
44
38
ENDCHAR
STARTCHAR registered
ENCODING 169
SWIDTH 688 0
DWIDTH 11 0
BBX 11 12 0 1
VVECTOR 6 16
SWIDTH1 0 -1250
DWIDTH1 0 -20
BITMAP 
1F00
60C0
4040
9E20
9120
9120
9E20
9220
9120
4040
60C0
1F00
ENDCHAR
STARTCHAR logicalnot
ENCODING 170
SWIDTH 562 0
DWIDTH 9 0
BBX 7 3 1 3
VVECTOR 5 16
SWIDTH1 0 -1250
DWIDTH1 0 -20
BITMAP 
FE
02
02
ENDCHAR
STARTCHAR onehalf
ENCODING 171
SWIDTH 750 0
DWIDTH 12 0
BBX 12 12 0 0
VVECTOR 6 16
SWIDTH1 0 -1250
DWIDTH1 0 -20
BITMAP 
2010
6020
2040
2080
2100
2200
04C0
0920
1020
2040
4080
81E0
ENDCHAR
STARTCHAR onequarter
ENCODING 172
SWIDTH 750 0
DWIDTH 12 0
BBX 12 12 0 0
VVECTOR 6 16
SWIDTH1 0 -1250
DWIDTH1 0 -20
BITMAP 
2010
6020
2040
2080
2100
2200
0420
0860
10A0
2120
41E0
8020
ENDCHAR
STARTCHAR exclamdown
ENCODING 173
SWIDTH 250 0
DWIDTH 4 0
BBX 1 12 1 -3
VVECTOR 1 16
SWIDTH1 0 -1250
DWIDTH1 0 -20
BITMAP 
80
00
00
80
80
80
80
80
80
80
80
80
ENDCHAR
STARTCHAR guillemotleft
ENCODING 174
SWIDTH 562 0
DWIDTH 9 0
BBX 7 5 1 1
VVECTOR 5 16
SWIDTH1 0 -1250
DWIDTH1 0 -20
BITMAP 
22
44
88
44
22
ENDCHAR
STARTCHAR guillemotright
ENCODING 175
SWIDTH 562 0
DWIDTH 9 0
BBX 7 5 1 1
VVECTOR 5 16
SWIDTH1 0 -1250
DWIDTH1 0 -20
BITMAP 
88
44
22
44
88
ENDCHAR
STARTCHAR ltshade
ENCODING 176
SWIDTH 625 0
DWIDTH 10 0
BBX 10 18 0 -4
VVECTOR 5 16
SWIDTH1 0 -1250
DWIDTH1 0 -20
BITMAP 
CCC0
CCC0
0000
0000
CCC0
CCC0
0000
0000
CCC0
CCC0
0000
0000
CCC0
CCC0
0000
0000
CCC0
CCC0
ENDCHAR
STARTCHAR shade
ENCODING 177
SWIDTH 625 0
DWIDTH 10 0
BBX 8 18 1 -4
VVECTOR 5 16
SWIDTH1 0 -1250
DWIDTH1 0 -20
BITMAP 
C3
C3
18
18
C3
C3
18
18
C3
C3
18
18
C3
C3
18
18
C3
C3
ENDCHAR
STARTCHAR dkshade
ENCODING 178
SWIDTH 625 0
DWIDTH 10 0
BBX 10 18 0 -4
VVECTOR 5 16
SWIDTH1 0 -1250
DWIDTH1 0 -20
BITMAP 
CCC0
CCC0
3300
3300
CCC0
CCC0
3300
3300
CCC0
CCC0
3300
3300
CCC0
CCC0
3300
3300
CCC0
CCC0
ENDCHAR
STARTCHAR SF110000
ENCODING 179
SWIDTH 625 0
DWIDTH 10 0
BBX 1 20 4 -4
VVECTOR 4 16
SWIDTH1 0 -1250
DWIDTH1 0 -20
BITMAP 
80
80
80
80
80
80
80
80
80
80
80
80
80
80
80
80
80
80
80
80
ENDCHAR
STARTCHAR SF090000
ENCODING 180
SWIDTH 625 0
DWIDTH 10 0
BBX 5 20 0 -4
VVECTOR 0 16
SWIDTH1 0 -1250
DWIDTH1 0 -20
BITMAP 
08
08
08
08
08
08
08
08
08
08
F8
08
08
08
08
08
08
08
08
08
ENDCHAR
STARTCHAR Aacute
ENCODING 181
SWIDTH 688 0
DWIDTH 11 0
BBX 11 16 0 0
VVECTOR 6 16
SWIDTH1 0 -1250
DWIDTH1 0 -20
BITMAP 
0100
0200
0400
0000
0400
0400
0A00
0A00
1100
1100
2080
2080
7FC0
4040
8020
8020
ENDCHAR
STARTCHAR Acircumflex
ENCODING 182
SWIDTH 688 0
DWIDTH 11 0
BBX 11 16 0 0
VVECTOR 6 16
SWIDTH1 0 -1250
DWIDTH1 0 -20
BITMAP 
0400
0A00
1100
0000
0400
0400
0A00
0A00
1100
1100
2080
2080
7FC0
4040
8020
8020
ENDCHAR
STARTCHAR Agrave
ENCODING 183
SWIDTH 688 0
DWIDTH 11 0
BBX 11 16 0 0
VVECTOR 6 16
SWIDTH1 0 -1250
DWIDTH1 0 -20
BITMAP 
1000
0800
0400
0000
0400
0400
0A00
0A00
1100
1100
2080
2080
7FC0
4040
8020
8020
ENDCHAR
STARTCHAR copyright
ENCODING 184
SWIDTH 688 0
DWIDTH 11 0
BBX 11 12 0 0
VVECTOR 6 16
SWIDTH1 0 -1250
DWIDTH1 0 -20
BITMAP 
1F00
60C0
4040
8E20
9120
9020
9020
9120
8E20
4060
60C0
1F00
ENDCHAR
STARTCHAR SF230000
ENCODING 185
SWIDTH 625 0
DWIDTH 10 0
BBX 6 20 0 -4
VVECTOR 1 16
SWIDTH1 0 -1250
DWIDTH1 0 -20
BITMAP 
14
14
14
14
14
14
14
14
14
F4
04
F4
14
14
14
14
14
14
14
14
ENDCHAR
STARTCHAR SF240000
ENCODING 186
SWIDTH 625 0
DWIDTH 10 0
BBX 3 20 3 -4
VVECTOR 4 16
SWIDTH1 0 -1250
DWIDTH1 0 -20
BITMAP 
A0
A0
A0
A0
A0
A0
A0
A0
A0
A0
A0
A0
A0
A0
A0
A0
A0
A0
A0
A0
ENDCHAR
STARTCHAR SF250000
ENCODING 187
SWIDTH 625 0
DWIDTH 10 0
BBX 6 11 0 -4
VVECTOR 1 16
SWIDTH1 0 -1250
DWIDTH1 0 -20
BITMAP 
FC
04
F4
14
14
14
14
14
14
14
14
ENDCHAR
STARTCHAR SF260000
ENCODING 188
SWIDTH 625 0
DWIDTH 10 0
BBX 6 12 0 4
VVECTOR 1 16
SWIDTH1 0 -1250
DWIDTH1 0 -20
BITMAP 
14
14
14
14
14
14
14
14
14
F4
04
FC
ENDCHAR
STARTCHAR cent
ENCODING 189
SWIDTH 562 0
DWIDTH 9 0
BBX 7 11 1 -1
VVECTOR 5 16
SWIDTH1 0 -1250
DWIDTH1 0 -20
BITMAP 
02
3A
44
8A
88
90
A0
A2
44
B8
80
ENDCHAR
STARTCHAR yen
ENCODING 190
SWIDTH 562 0
DWIDTH 9 0
BBX 9 12 0 0
VVECTOR 5 16
SWIDTH1 0 -1250
DWIDTH1 0 -20
BITMAP 
8080
8080
4100
2200
FF80
0800
0800
FF80
0800
0800
0800
0800
ENDCHAR
STARTCHAR SF030000
ENCODING 191
SWIDTH 625 0
DWIDTH 10 0
BBX 5 10 0 -4
VVECTOR 0 16
SWIDTH1 0 -1250
DWIDTH1 0 -20
BITMAP 
F8
08
08
08
08
08
08
08
08
08
ENDCHAR
STARTCHAR SF020000
ENCODING 192
SWIDTH 625 0
DWIDTH 10 0
BBX 6 11 4 5
VVECTOR 9 16
SWIDTH1 0 -1250
DWIDTH1 0 -20
BITMAP 
80
80
80
80
80
80
80
80
80
80
FC
ENDCHAR
STARTCHAR SF070000
ENCODING 193
SWIDTH 625 0
DWIDTH 10 0
BBX 10 11 0 5
VVECTOR 5 16
SWIDTH1 0 -1250
DWIDTH1 0 -20
BITMAP 
0800
0800
0800
0800
0800
0800
0800
0800
0800
0800
FFC0
ENDCHAR
STARTCHAR SF060000
ENCODING 194
SWIDTH 625 0
DWIDTH 10 0
BBX 10 10 0 -4
VVECTOR 5 16
SWIDTH1 0 -1250
DWIDTH1 0 -20
BITMAP 
FFC0
0800
0800
0800
0800
0800
0800
0800
0800
0800
ENDCHAR
STARTCHAR SF080000
ENCODING 195
SWIDTH 625 0
DWIDTH 10 0
BBX 6 20 4 -4
VVECTOR 9 16
SWIDTH1 0 -1250
DWIDTH1 0 -20
BITMAP 
80
80
80
80
80
80
80
80
80
80
FC
80
80
80
80
80
80
80
80
80
ENDCHAR
STARTCHAR SF100000
ENCODING 196
SWIDTH 625 0
DWIDTH 10 0
BBX 10 1 0 5
VVECTOR 5 16
SWIDTH1 0 -1250
DWIDTH1 0 -20
BITMAP 
FFC0
ENDCHAR
STARTCHAR SF050000
ENCODING 197
SWIDTH 625 0
DWIDTH 10 0
BBX 10 20 0 -4
VVECTOR 5 16
SWIDTH1 0 -1250
DWIDTH1 0 -20
BITMAP 
0800
0800
0800
0800
0800
0800
0800
0800
0800
0800
FFC0
0800
0800
0800
0800
0800
0800
0800
0800
0800
ENDCHAR
STARTCHAR atilde
ENCODING 198
SWIDTH 562 0
DWIDTH 9 0
BBX 8 13 1 0
VVECTOR 6 16
SWIDTH1 0 -1250
DWIDTH1 0 -20
BITMAP 
62
92
8C
00
7C
82
02
02
7E
82
82
82
7D
ENDCHAR
STARTCHAR Atilde
ENCODING 199
SWIDTH 688 0
DWIDTH 11 0
BBX 11 16 0 0
VVECTOR 6 16
SWIDTH1 0 -1250
DWIDTH1 0 -20
BITMAP 
1880
2480
2300
0000
0400
0400
0A00
0A00
1100
1100
2080
2080
7FC0
4040
8020
8020
ENDCHAR
STARTCHAR SF380000
ENCODING 200
SWIDTH 625 0
DWIDTH 10 0
BBX 7 12 3 4
VVECTOR 8 16
SWIDTH1 0 -1250
DWIDTH1 0 -20
BITMAP 
A0
A0
A0
A0
A0
A0
A0
A0
A0
BE
80
FE
ENDCHAR
STARTCHAR SF390000
ENCODING 201
SWIDTH 625 0
DWIDTH 10 0
BBX 7 11 3 -4
VVECTOR 8 16
SWIDTH1 0 -1250
DWIDTH1 0 -20
BITMAP 
FE
80
BE
A0
A0
A0
A0
A0
A0
A0
A0
ENDCHAR
STARTCHAR SF400000
ENCODING 202
SWIDTH 625 0
DWIDTH 10 0
BBX 10 12 0 4
VVECTOR 5 16
SWIDTH1 0 -1250
DWIDTH1 0 -20
BITMAP 
1400
1400
1400
1400
1400
1400
1400
1400
1400
F7C0
0000
FFC0
ENDCHAR
STARTCHAR SF410000
ENCODING 203
SWIDTH 625 0
DWIDTH 10 0
BBX 10 11 0 -4
VVECTOR 5 16
SWIDTH1 0 -1250
DWIDTH1 0 -20
BITMAP 
FFC0
0000
F7C0
1400
1400
1400
1400
1400
1400
1400
1400
ENDCHAR
STARTCHAR SF420000
ENCODING 204
SWIDTH 625 0
DWIDTH 10 0
BBX 7 20 3 -4
VVECTOR 8 16
SWIDTH1 0 -1250
DWIDTH1 0 -20
BITMAP 
A0
A0
A0
A0
A0
A0
A0
A0
A0
BE
80
BE
A0
A0
A0
A0
A0
A0
A0
A0
ENDCHAR
STARTCHAR SF430000
ENCODING 205
SWIDTH 625 0
DWIDTH 10 0
BBX 10 3 0 4
VVECTOR 5 16
SWIDTH1 0 -1250
DWIDTH1 0 -20
BITMAP 
FFC0
0000
FFC0
ENDCHAR
STARTCHAR SF440000
ENCODING 206
SWIDTH 625 0
DWIDTH 10 0
BBX 10 20 0 -4
VVECTOR 5 16
SWIDTH1 0 -1250
DWIDTH1 0 -20
BITMAP 
1400
1400
1400
1400
1400
1400
1400
1400
1400
F7C0
0000
F7C0
1400
1400
1400
1400
1400
1400
1400
1400
ENDCHAR
STARTCHAR currency
ENCODING 207
SWIDTH 562 0
DWIDTH 9 0
BBX 7 7 1 4
VVECTOR 5 16
SWIDTH1 0 -1250
DWIDTH1 0 -20
BITMAP 
82
7C
44
44
44
7C
82
ENDCHAR
STARTCHAR eth
ENCODING 208
SWIDTH 562 0
DWIDTH 9 0
BBX 7 12 1 0
VVECTOR 5 16
SWIDTH1 0 -1250
DWIDTH1 0 -20
BITMAP 
D0
20
50
08
38
44
82
82
82
82
44
38
ENDCHAR
STARTCHAR Eth
ENCODING 209
SWIDTH 750 0
DWIDTH 12 0
BBX 11 12 0 0
VVECTOR 5 16
SWIDTH1 0 -1250
DWIDTH1 0 -20
BITMAP 
3F00
20C0
2040
2020
2020
F820
2020
2020
2020
2040
20C0
3F00
ENDCHAR
STARTCHAR Ecircumflex
ENCODING 210
SWIDTH 688 0
DWIDTH 11 0
BBX 8 16 2 0
VVECTOR 7 16
SWIDTH1 0 -1250
DWIDTH1 0 -20
BITMAP 
18
24
42
00
FF
80
80
80
80
FE
80
80
80
80
80
FF
ENDCHAR
STARTCHAR Edieresis
ENCODING 211
SWIDTH 688 0
DWIDTH 11 0
BBX 8 15 2 0
VVECTOR 7 16
SWIDTH1 0 -1250
DWIDTH1 0 -20
BITMAP 
42
00
00
FF
80
80
80
80
FE
80
80
80
80
80
FF
ENDCHAR
STARTCHAR Egrave
ENCODING 212
SWIDTH 688 0
DWIDTH 11 0
BBX 8 16 2 0
VVECTOR 7 16
SWIDTH1 0 -1250
DWIDTH1 0 -20
BITMAP 
20
10
08
00
FF
80
80
80
80
FE
80
80
80
80
80
FF
ENDCHAR
STARTCHAR Euro
ENCODING 213
SWIDTH 250 0
DWIDTH 4 0
BBX 2 8 1 0
VVECTOR 2 16
SWIDTH1 0 -1250
DWIDTH1 0 -20
BITMAP 
C0
C0
C0
C0
C0
C0
C0
C0
ENDCHAR
STARTCHAR Iacute
ENCODING 214
SWIDTH 313 0
DWIDTH 5 0
BBX 3 16 2 0
VVECTOR 5 16
SWIDTH1 0 -1250
DWIDTH1 0 -20
BITMAP 
20
40
80
00
80
80
80
80
80
80
80
80
80
80
80
80
ENDCHAR
STARTCHAR Icircumflex
ENCODING 215
SWIDTH 313 0
DWIDTH 5 0
BBX 5 16 0 0
VVECTOR 3 16
SWIDTH1 0 -1250
DWIDTH1 0 -20
BITMAP 
20
50
88
00
20
20
20
20
20
20
20
20
20
20
20
20
ENDCHAR
STARTCHAR Idieresis
ENCODING 216
SWIDTH 313 0
DWIDTH 5 0
BBX 5 15 0 0
VVECTOR 3 16
SWIDTH1 0 -1250
DWIDTH1 0 -20
BITMAP 
88
00
00
20
20
20
20
20
20
20
20
20
20
20
20
ENDCHAR
STARTCHAR SF040000
ENCODING 217
SWIDTH 625 0
DWIDTH 10 0
BBX 5 11 0 5
VVECTOR 0 16
SWIDTH1 0 -1250
DWIDTH1 0 -20
BITMAP 
08
08
08
08
08
08
08
08
08
08
F8
ENDCHAR
STARTCHAR SF010000
ENCODING 218
SWIDTH 625 0
DWIDTH 10 0
BBX 6 10 4 -4
VVECTOR 9 16
SWIDTH1 0 -1250
DWIDTH1 0 -20
BITMAP 
FC
80
80
80
80
80
80
80
80
80
ENDCHAR
STARTCHAR block
ENCODING 219
SWIDTH 625 0
DWIDTH 10 0
BBX 10 20 0 -4
VVECTOR 5 16
SWIDTH1 0 -1250
DWIDTH1 0 -20
BITMAP 
FFC0
FFC0
FFC0
FFC0
FFC0
FFC0
FFC0
FFC0
FFC0
FFC0
FFC0
FFC0
FFC0
FFC0
FFC0
FFC0
FFC0
FFC0
FFC0
FFC0
ENDCHAR
STARTCHAR dnblock
ENCODING 220
SWIDTH 625 0
DWIDTH 10 0
BBX 10 9 0 -4
VVECTOR 5 16
SWIDTH1 0 -1250
DWIDTH1 0 -20
BITMAP 
FFC0
FFC0
FFC0
FFC0
FFC0
FFC0
FFC0
FFC0
FFC0
ENDCHAR
STARTCHAR brokenbar
ENCODING 221
SWIDTH 313 0
DWIDTH 5 0
BBX 1 14 2 -2
VVECTOR 3 16
SWIDTH1 0 -1250
DWIDTH1 0 -20
BITMAP 
80
80
80
80
80
80
00
00
80
80
80
80
80
80
ENDCHAR
STARTCHAR Igrave
ENCODING 222
SWIDTH 313 0
DWIDTH 5 0
BBX 3 16 0 0
VVECTOR 1 16
SWIDTH1 0 -1250
DWIDTH1 0 -20
BITMAP 
80
40
20
00
20
20
20
20
20
20
20
20
20
20
20
20
ENDCHAR
STARTCHAR upblock
ENCODING 223
SWIDTH 625 0
DWIDTH 10 0
BBX 10 11 0 5
VVECTOR 5 16
SWIDTH1 0 -1250
DWIDTH1 0 -20
BITMAP 
FFC0
FFC0
FFC0
FFC0
FFC0
FFC0
FFC0
FFC0
FFC0
FFC0
FFC0
ENDCHAR
STARTCHAR Oacute
ENCODING 224
SWIDTH 750 0
DWIDTH 12 0
BBX 10 16 1 0
VVECTOR 6 16
SWIDTH1 0 -1250
DWIDTH1 0 -20
BITMAP 
0200
0400
0800
0000
1E00
6180
4080
8040
8040
8040
8040
8040
8040
4080
6180
1E00
ENDCHAR
STARTCHAR germandbls
ENCODING 225
SWIDTH 625 0
DWIDTH 10 0
BBX 7 12 2 0
VVECTOR 6 16
SWIDTH1 0 -1250
DWIDTH1 0 -20
BITMAP 
70
88
84
84
84
98
84
82
82
82
84
B8
ENDCHAR
STARTCHAR Ocircumflex
ENCODING 226
SWIDTH 750 0
DWIDTH 12 0
BBX 10 16 1 0
VVECTOR 6 16
SWIDTH1 0 -1250
DWIDTH1 0 -20
BITMAP 
0C00
1200
2100
0000
1E00
6180
4080
8040
8040
8040
8040
8040
8040
4080
6180
1E00
ENDCHAR
STARTCHAR Ograve
ENCODING 227
SWIDTH 750 0
DWIDTH 12 0
BBX 10 16 1 0
VVECTOR 6 16
SWIDTH1 0 -1250
DWIDTH1 0 -20
BITMAP 
1000
0800
0400
0000
1E00
6180
4080
8040
8040
8040
8040
8040
8040
4080
6180
1E00
ENDCHAR
STARTCHAR otilde
ENCODING 228
SWIDTH 562 0
DWIDTH 9 0
BBX 7 13 1 0
VVECTOR 5 16
SWIDTH1 0 -1250
DWIDTH1 0 -20
BITMAP 
62
92
8C
00
38
44
82
82
82
82
82
44
38
ENDCHAR
STARTCHAR Otilde
ENCODING 229
SWIDTH 750 0
DWIDTH 12 0
BBX 10 16 1 0
VVECTOR 6 16
SWIDTH1 0 -1250
DWIDTH1 0 -20
BITMAP 
3880
4C80
4700
0000
1E00
6180
4080
8040
8040
8040
8040
8040
8040
4080
6180
1E00
ENDCHAR
STARTCHAR mu
ENCODING 230
SWIDTH 500 0
DWIDTH 8 0
BBX 7 12 1 -3
VVECTOR 5 16
SWIDTH1 0 -1250
DWIDTH1 0 -20
BITMAP 
84
84
84
84
84
84
84
84
FA
80
80
80
ENDCHAR
STARTCHAR thorn
ENCODING 231
SWIDTH 562 0
DWIDTH 9 0
BBX 7 16 1 -4
VVECTOR 5 16
SWIDTH1 0 -1250
DWIDTH1 0 -20
BITMAP 
80
80
80
B8
C4
82
82
82
82
82
C4
B8
80
80
80
80
ENDCHAR
STARTCHAR Thorn
ENCODING 232
SWIDTH 625 0
DWIDTH 10 0
BBX 7 12 2 0
VVECTOR 6 16
SWIDTH1 0 -1250
DWIDTH1 0 -20
BITMAP 
80
80
F8
84
82
82
82
82
84
F8
80
80
ENDCHAR
STARTCHAR Uacute
ENCODING 233
SWIDTH 750 0
DWIDTH 12 0
BBX 8 16 2 0
VVECTOR 6 16
SWIDTH1 0 -1250
DWIDTH1 0 -20
BITMAP 
04
08
10
00
81
81
81
81
81
81
81
81
81
81
42
3C
ENDCHAR
STARTCHAR Ucircumflex
ENCODING 234
SWIDTH 750 0
DWIDTH 12 0
BBX 8 16 2 0
VVECTOR 6 16
SWIDTH1 0 -1250
DWIDTH1 0 -20
BITMAP 
18
24
42
00
81
81
81
81
81
81
81
81
81
81
42
3C
ENDCHAR
STARTCHAR Ugrave
ENCODING 235
SWIDTH 750 0
DWIDTH 12 0
BBX 8 16 2 0
VVECTOR 6 16
SWIDTH1 0 -1250
DWIDTH1 0 -20
BITMAP 
20
10
08
00
81
81
81
81
81
81
81
81
81
81
42
3C
ENDCHAR
STARTCHAR yacute
ENCODING 236
SWIDTH 438 0
DWIDTH 7 0
BBX 7 17 0 -4
VVECTOR 4 16
SWIDTH1 0 -1250
DWIDTH1 0 -20
BITMAP 
08
10
20
00
82
82
44
44
28
28
10
10
20
20
40
40
80
ENDCHAR
STARTCHAR Yacute
ENCODING 237
SWIDTH 688 0
DWIDTH 11 0
BBX 11 16 0 0
VVECTOR 6 16
SWIDTH1 0 -1250
DWIDTH1 0 -20
BITMAP 
0100
0200
0400
0000
8020
4040
2080
1100
0A00
0400
0400
0400
0400
0400
0400
0400
ENDCHAR
STARTCHAR macron
ENCODING 238
SWIDTH 562 0
DWIDTH 9 0
BBX 9 1 0 13
VVECTOR 5 16
SWIDTH1 0 -1250
DWIDTH1 0 -20
BITMAP 
FF80
ENDCHAR
STARTCHAR acute
ENCODING 239
SWIDTH 313 0
DWIDTH 5 0
BBX 3 3 1 10
VVECTOR 3 16
SWIDTH1 0 -1250
DWIDTH1 0 -20
BITMAP 
20
40
80
ENDCHAR
STARTCHAR uni00AD
ENCODING 240
SWIDTH 313 0
DWIDTH 5 0
BBX 5 1 0 4
VVECTOR 3 16
SWIDTH1 0 -1250
DWIDTH1 0 -20
BITMAP 
F8
ENDCHAR
STARTCHAR plusminus
ENCODING 241
SWIDTH 562 0
DWIDTH 9 0
BBX 7 9 1 0
VVECTOR 5 16
SWIDTH1 0 -1250
DWIDTH1 0 -20
BITMAP 
10
10
10
FE
10
10
10
00
FE
ENDCHAR
STARTCHAR underscoredbl
ENCODING 242
SWIDTH 562 0
DWIDTH 9 0
BBX 9 3 0 -4
VVECTOR 5 16
SWIDTH1 0 -1250
DWIDTH1 0 -20
BITMAP 
FF80
0000
FF80
ENDCHAR
STARTCHAR threequarters
ENCODING 243
SWIDTH 750 0
DWIDTH 12 0
BBX 12 12 0 0
VVECTOR 6 16
SWIDTH1 0 -1250
DWIDTH1 0 -20
BITMAP 
3010
4820
1040
0880
4900
3200
0420
0860
10A0
2120
41E0
8020
ENDCHAR
STARTCHAR paragraph
ENCODING 244
SWIDTH 625 0
DWIDTH 10 0
BBX 8 14 1 -3
VVECTOR 5 16
SWIDTH1 0 -1250
DWIDTH1 0 -20
BITMAP 
7F
FF
F6
F6
F6
76
36
36
36
36
36
36
36
36
ENDCHAR
STARTCHAR section
ENCODING 245
SWIDTH 562 0
DWIDTH 9 0
BBX 7 13 1 -1
VVECTOR 5 16
SWIDTH1 0 -1250
DWIDTH1 0 -20
BITMAP 
38
44
40
60
90
88
44
22
12
0C
04
44
38
ENDCHAR
STARTCHAR divide
ENCODING 246
SWIDTH 625 0
DWIDTH 10 0
BBX 8 8 1 1
VVECTOR 5 16
SWIDTH1 0 -1250
DWIDTH1 0 -20
BITMAP 
18
18
00
FF
FF
00
18
18
ENDCHAR
STARTCHAR cedilla
ENCODING 247
SWIDTH 313 0
DWIDTH 5 0
BBX 3 4 1 -4
VVECTOR 3 16
SWIDTH1 0 -1250
DWIDTH1 0 -20
BITMAP 
40
20
20
C0
ENDCHAR
STARTCHAR degree
ENCODING 248
SWIDTH 313 0
DWIDTH 5 0
BBX 4 4 1 8
VVECTOR 4 16
SWIDTH1 0 -1250
DWIDTH1 0 -20
BITMAP 
60
90
90
60
ENDCHAR
STARTCHAR dieresis
ENCODING 249
SWIDTH 313 0
DWIDTH 5 0
BBX 3 1 1 11
VVECTOR 3 16
SWIDTH1 0 -1250
DWIDTH1 0 -20
BITMAP 
A0
ENDCHAR
STARTCHAR periodcentered
ENCODING 250
SWIDTH 250 0
DWIDTH 4 0
BBX 1 1 2 6
VVECTOR 3 16
SWIDTH1 0 -1250
DWIDTH1 0 -20
BITMAP 
80
ENDCHAR
STARTCHAR uni00B9
ENCODING 251
SWIDTH 313 0
DWIDTH 5 0
BBX 2 6 1 6
VVECTOR 2 16
SWIDTH1 0 -1250
DWIDTH1 0 -20
BITMAP 
40
C0
40
40
40
40
ENDCHAR
STARTCHAR uni00B3
ENCODING 252
SWIDTH 313 0
DWIDTH 5 0
BBX 4 6 1 6
VVECTOR 4 16
SWIDTH1 0 -1250
DWIDTH1 0 -20
BITMAP 
60
90
20
10
90
60
ENDCHAR
STARTCHAR uni00B2
ENCODING 253
SWIDTH 313 0
DWIDTH 5 0
BBX 4 6 1 6
VVECTOR 4 16
SWIDTH1 0 -1250
DWIDTH1 0 -20
BITMAP 
60
90
10
20
40
F0
ENDCHAR
STARTCHAR filledbox
ENCODING 254
SWIDTH 688 0
DWIDTH 11 0
BBX 11 11 0 0
VVECTOR 6 16
SWIDTH1 0 -1250
DWIDTH1 0 -20
BITMAP 
FFE0
FFE0
FFE0
FFE0
FFE0
FFE0
FFE0
FFE0
FFE0
FFE0
FFE0
ENDCHAR
STARTCHAR uni00A0
ENCODING 255
SWIDTH 250 0
DWIDTH 4 0
BBX 0 0 4 16
VVECTOR 6 16
SWIDTH1 0 -1250
DWIDTH1 0 -20
BITMAP 
ENDCHAR
STARTCHAR peseta
ENCODING 256
SWIDTH 1063 0
DWIDTH 17 0
BBX 15 11 1 0
VVECTOR 9 16
SWIDTH1 0 -1250
DWIDTH1 0 -20
BITMAP 
FC00
FE00
C600
C600
FF80
FD8E
C3D8
C19C
C18E
C1C6
C0DC
ENDCHAR
STARTCHAR revlogicalnot
ENCODING 257
SWIDTH 562 0
DWIDTH 9 0
BBX 7 6 1 0
VVECTOR 5 16
SWIDTH1 0 -1250
DWIDTH1 0 -20
BITMAP 
FE
FE
C0
C0
C0
C0
ENDCHAR
STARTCHAR SF190000
ENCODING 258
SWIDTH 625 0
DWIDTH 10 0
BBX 5 20 0 -4
VVECTOR 0 16
SWIDTH1 0 -1250
DWIDTH1 0 -20
BITMAP 
08
08
08
08
08
08
08
08
08
F8
08
F8
08
08
08
08
08
08
08
08
ENDCHAR
STARTCHAR SF200000
ENCODING 259
SWIDTH 625 0
DWIDTH 10 0
BBX 6 20 0 -4
VVECTOR 1 16
SWIDTH1 0 -1250
DWIDTH1 0 -20
BITMAP 
14
14
14
14
14
14
14
14
14
14
F4
14
14
14
14
14
14
14
14
14
ENDCHAR
STARTCHAR SF210000
ENCODING 260
SWIDTH 625 0
DWIDTH 10 0
BBX 6 10 0 -4
VVECTOR 1 16
SWIDTH1 0 -1250
DWIDTH1 0 -20
BITMAP 
FC
14
14
14
14
14
14
14
14
14
ENDCHAR
STARTCHAR SF220000
ENCODING 261
SWIDTH 625 0
DWIDTH 10 0
BBX 5 11 0 -4
VVECTOR 0 16
SWIDTH1 0 -1250
DWIDTH1 0 -20
BITMAP 
F8
08
F8
08
08
08
08
08
08
08
08
ENDCHAR
STARTCHAR SF270000
ENCODING 262
SWIDTH 625 0
DWIDTH 10 0
BBX 6 11 0 5
VVECTOR 1 16
SWIDTH1 0 -1250
DWIDTH1 0 -20
BITMAP 
14
14
14
14
14
14
14
14
14
14
FC
ENDCHAR
STARTCHAR SF280000
ENCODING 263
SWIDTH 625 0
DWIDTH 10 0
BBX 5 12 0 4
VVECTOR 0 16
SWIDTH1 0 -1250
DWIDTH1 0 -20
BITMAP 
08
08
08
08
08
08
08
08
08
F8
08
F8
ENDCHAR
STARTCHAR SF360000
ENCODING 264
SWIDTH 625 0
DWIDTH 10 0
BBX 6 20 4 -4
VVECTOR 9 16
SWIDTH1 0 -1250
DWIDTH1 0 -20
BITMAP 
80
80
80
80
80
80
80
80
80
FC
80
FC
80
80
80
80
80
80
80
80
ENDCHAR
STARTCHAR SF370000
ENCODING 265
SWIDTH 625 0
DWIDTH 10 0
BBX 7 20 3 -4
VVECTOR 8 16
SWIDTH1 0 -1250
DWIDTH1 0 -20
BITMAP 
A0
A0
A0
A0
A0
A0
A0
A0
A0
A0
BE
A0
A0
A0
A0
A0
A0
A0
A0
A0
ENDCHAR
STARTCHAR SF450000
ENCODING 266
SWIDTH 625 0
DWIDTH 10 0
BBX 10 12 0 4
VVECTOR 5 16
SWIDTH1 0 -1250
DWIDTH1 0 -20
BITMAP 
0800
0800
0800
0800
0800
0800
0800
0800
0800
FFC0
0000
FFC0
ENDCHAR
STARTCHAR SF460000
ENCODING 267
SWIDTH 625 0
DWIDTH 10 0
BBX 10 11 0 5
VVECTOR 5 16
SWIDTH1 0 -1250
DWIDTH1 0 -20
BITMAP 
1400
1400
1400
1400
1400
1400
1400
1400
1400
1400
FFC0
ENDCHAR
STARTCHAR SF470000
ENCODING 268
SWIDTH 625 0
DWIDTH 10 0
BBX 10 11 0 -4
VVECTOR 5 16
SWIDTH1 0 -1250
DWIDTH1 0 -20
BITMAP 
FFC0
0000
FFC0
0800
0800
0800
0800
0800
0800
0800
0800
ENDCHAR
STARTCHAR SF480000
ENCODING 269
SWIDTH 625 0
DWIDTH 10 0
BBX 10 10 0 -4
VVECTOR 5 16
SWIDTH1 0 -1250
DWIDTH1 0 -20
BITMAP 
FFC0
1400
1400
1400
1400
1400
1400
1400
1400
1400
ENDCHAR
STARTCHAR SF490000
ENCODING 270
SWIDTH 625 0
DWIDTH 10 0
BBX 7 11 3 5
VVECTOR 8 16
SWIDTH1 0 -1250
DWIDTH1 0 -20
BITMAP 
A0
A0
A0
A0
A0
A0
A0
A0
A0
A0
FE
ENDCHAR
STARTCHAR SF500000
ENCODING 271
SWIDTH 625 0
DWIDTH 10 0
BBX 6 12 4 4
VVECTOR 9 16
SWIDTH1 0 -1250
DWIDTH1 0 -20
BITMAP 
80
80
80
80
80
80
80
80
80
FC
80
FC
ENDCHAR
STARTCHAR SF510000
ENCODING 272
SWIDTH 625 0
DWIDTH 10 0
BBX 6 11 4 -4
VVECTOR 9 16
SWIDTH1 0 -1250
DWIDTH1 0 -20
BITMAP 
FC
80
FC
80
80
80
80
80
80
80
80
ENDCHAR
STARTCHAR SF520000
ENCODING 273
SWIDTH 625 0
DWIDTH 10 0
BBX 7 10 3 -4
VVECTOR 8 16
SWIDTH1 0 -1250
DWIDTH1 0 -20
BITMAP 
FE
A0
A0
A0
A0
A0
A0
A0
A0
A0
ENDCHAR
STARTCHAR SF530000
ENCODING 274
SWIDTH 625 0
DWIDTH 10 0
BBX 10 20 0 -4
VVECTOR 5 16
SWIDTH1 0 -1250
DWIDTH1 0 -20
BITMAP 
1400
1400
1400
1400
1400
1400
1400
1400
1400
1400
FFC0
1400
1400
1400
1400
1400
1400
1400
1400
1400
ENDCHAR
STARTCHAR SF540000
ENCODING 275
SWIDTH 625 0
DWIDTH 10 0
BBX 10 20 0 -4
VVECTOR 5 16
SWIDTH1 0 -1250
DWIDTH1 0 -20
BITMAP 
0800
0800
0800
0800
0800
0800
0800
0800
0800
FFC0
0800
FFC0
0800
0800
0800
0800
0800
0800
0800
0800
ENDCHAR
STARTCHAR lfblock
ENCODING 276
SWIDTH 625 0
DWIDTH 10 0
BBX 5 20 0 -4
VVECTOR 0 16
SWIDTH1 0 -1250
DWIDTH1 0 -20
BITMAP 
F8
F8
F8
F8
F8
F8
F8
F8
F8
F8
F8
F8
F8
F8
F8
F8
F8
F8
F8
F8
ENDCHAR
STARTCHAR rtblock
ENCODING 277
SWIDTH 625 0
DWIDTH 10 0
BBX 5 20 5 -4
VVECTOR 10 16
SWIDTH1 0 -1250
DWIDTH1 0 -20
BITMAP 
F8
F8
F8
F8
F8
F8
F8
F8
F8
F8
F8
F8
F8
F8
F8
F8
F8
F8
F8
F8
ENDCHAR
STARTCHAR alpha
ENCODING 278
SWIDTH 688 0
DWIDTH 11 0
BBX 9 8 1 0
VVECTOR 6 16
SWIDTH1 0 -1250
DWIDTH1 0 -20
BITMAP 
7980
FF00
CF00
C600
C600
CF00
FF80
7980
ENDCHAR
STARTCHAR Gamma
ENCODING 279
SWIDTH 562 0
DWIDTH 9 0
BBX 7 11 1 0
VVECTOR 5 16
SWIDTH1 0 -1250
DWIDTH1 0 -20
BITMAP 
FE
FE
C0
C0
C0
C0
C0
C0
C0
C0
C0
ENDCHAR
STARTCHAR pi
ENCODING 280
SWIDTH 625 0
DWIDTH 10 0
BBX 8 8 1 0
VVECTOR 5 16
SWIDTH1 0 -1250
DWIDTH1 0 -20
BITMAP 
FF
FF
66
66
66
66
66
66
ENDCHAR
STARTCHAR Sigma
ENCODING 281
SWIDTH 625 0
DWIDTH 10 0
BBX 8 11 1 0
VVECTOR 5 16
SWIDTH1 0 -1250
DWIDTH1 0 -20
BITMAP 
FF
FF
70
38
1C
1C
38
70
E0
FF
FF
ENDCHAR
STARTCHAR sigma
ENCODING 282
SWIDTH 562 0
DWIDTH 9 0
BBX 8 8 1 0
VVECTOR 6 16
SWIDTH1 0 -1250
DWIDTH1 0 -20
BITMAP 
7F
FF
C6
C6
C6
C6
FE
7C
ENDCHAR
STARTCHAR tau
ENCODING 283
SWIDTH 500 0
DWIDTH 8 0
BBX 6 8 1 0
VVECTOR 4 16
SWIDTH1 0 -1250
DWIDTH1 0 -20
BITMAP 
FC
FC
30
30
30
30
30
30
ENDCHAR
STARTCHAR Phi
ENCODING 284
SWIDTH 750 0
DWIDTH 12 0
BBX 10 11 1 0
VVECTOR 6 16
SWIDTH1 0 -1250
DWIDTH1 0 -20
BITMAP 
0C00
0C00
7F80
FFC0
CCC0
CCC0
CCC0
FFC0
7F80
0C00
0C00
ENDCHAR
STARTCHAR Theta
ENCODING 285
SWIDTH 750 0
DWIDTH 12 0
BBX 10 11 1 0
VVECTOR 6 16
SWIDTH1 0 -1250
DWIDTH1 0 -20
BITMAP 
3F00
7F80
E1C0
C0C0
DEC0
DEC0
C0C0
C0C0
E1C0
7F80
3F00
ENDCHAR
STARTCHAR uni03A9
ENCODING 286
SWIDTH 750 0
DWIDTH 12 0
BBX 10 11 1 0
VVECTOR 6 16
SWIDTH1 0 -1250
DWIDTH1 0 -20
BITMAP 
3F00
7F80
E1C0
C0C0
C0C0
C0C0
E1C0
7380
3300
F3C0
F3C0
ENDCHAR
STARTCHAR delta
ENCODING 287
SWIDTH 562 0
DWIDTH 9 0
BBX 7 11 1 0
VVECTOR 5 16
SWIDTH1 0 -1250
DWIDTH1 0 -20
BITMAP 
FE
FE
70
38
7C
FE
C6
C6
C6
FE
7C
ENDCHAR
STARTCHAR infinity
ENCODING 288
SWIDTH 750 0
DWIDTH 12 0
BBX 10 7 1 2
VVECTOR 6 16
SWIDTH1 0 -1250
DWIDTH1 0 -20
BITMAP 
7380
FFC0
CCC0
CCC0
CCC0
FFC0
7380
ENDCHAR
STARTCHAR phi1
ENCODING 289
SWIDTH 625 0
DWIDTH 10 0
BBX 8 14 1 -3
VVECTOR 5 16
SWIDTH1 0 -1250
DWIDTH1 0 -20
BITMAP 
18
18
18
7E
FF
DB
DB
DB
DB
FF
7E
18
18
18
ENDCHAR
STARTCHAR epsilon
ENCODING 290
SWIDTH 562 0
DWIDTH 9 0
BBX 7 8 1 0
VVECTOR 5 16
SWIDTH1 0 -1250
DWIDTH1 0 -20
BITMAP 
7C
FE
C6
70
F0
C6
FE
7C
ENDCHAR
STARTCHAR intersection
ENCODING 291
SWIDTH 625 0
DWIDTH 10 0
BBX 8 11 1 0
VVECTOR 5 16
SWIDTH1 0 -1250
DWIDTH1 0 -20
BITMAP 
3C
7E
E7
C3
C3
C3
C3
C3
C3
C3
C3
ENDCHAR
STARTCHAR equivalence
ENCODING 292
SWIDTH 625 0
DWIDTH 10 0
BBX 8 10 1 0
VVECTOR 5 16
SWIDTH1 0 -1250
DWIDTH1 0 -20
BITMAP 
FF
FF
00
00
FF
FF
00
00
FF
FF
ENDCHAR
STARTCHAR greaterequal
ENCODING 293
SWIDTH 562 0
DWIDTH 9 0
BBX 7 10 1 0
VVECTOR 5 16
SWIDTH1 0 -1250
DWIDTH1 0 -20
BITMAP 
70
38
1C
0E
1C
38
70
00
FE
FE
ENDCHAR
STARTCHAR lessequal
ENCODING 294
SWIDTH 562 0
DWIDTH 9 0
BBX 7 10 1 0
VVECTOR 5 16
SWIDTH1 0 -1250
DWIDTH1 0 -20
BITMAP 
1C
38
70
E0
70
38
1C
00
FE
FE
ENDCHAR
STARTCHAR integraltp
ENCODING 295
SWIDTH 812 0
DWIDTH 13 0
BBX 6 19 5 -4
VVECTOR 10 16
SWIDTH1 0 -1250
DWIDTH1 0 -20
BITMAP 
38
7C
D8
C0
C0
C0
C0
C0
C0
C0
C0
C0
C0
C0
C0
C0
C0
C0
C0
ENDCHAR
STARTCHAR integralbt
ENCODING 296
SWIDTH 812 0
DWIDTH 13 0
BBX 6 19 2 -4
VVECTOR 4 16
SWIDTH1 0 -1250
DWIDTH1 0 -20
BITMAP 
0C
0C
0C
0C
0C
0C
0C
0C
0C
0C
0C
0C
0C
0C
0C
4C
EC
F8
70
ENDCHAR
STARTCHAR approxequal
ENCODING 297
SWIDTH 625 0
DWIDTH 10 0
BBX 8 8 1 1
VVECTOR 5 16
SWIDTH1 0 -1250
DWIDTH1 0 -20
BITMAP 
73
FF
CE
00
00
73
FF
CE
ENDCHAR
STARTCHAR uni2219
ENCODING 298
SWIDTH 625 0
DWIDTH 10 0
BBX 2 2 4 4
VVECTOR 5 16
SWIDTH1 0 -1250
DWIDTH1 0 -20
BITMAP 
C0
C0
ENDCHAR
STARTCHAR radical
ENCODING 299
SWIDTH 688 0
DWIDTH 11 0
BBX 11 14 0 -1
VVECTOR 6 16
SWIDTH1 0 -1250
DWIDTH1 0 -20
BITMAP 
01E0
01E0
0300
0300
0300
0600
E600
E600
2C00
2C00
3C00
1800
1800
1800
ENDCHAR
STARTCHAR uni207F
ENCODING 300
SWIDTH 438 0
DWIDTH 7 0
BBX 5 5 1 6
VVECTOR 4 16
SWIDTH1 0 -1250
DWIDTH1 0 -20
BITMAP 
B0
D8
88
88
88
ENDCHAR
STARTCHAR uni02C9
ENCODING 301
SWIDTH 313 0
DWIDTH 5 0
BBX 5 2 0 13
VVECTOR 3 16
SWIDTH1 0 -1250
DWIDTH1 0 -20
BITMAP 
F8
F8
ENDCHAR
STARTCHAR breve
ENCODING 302
SWIDTH 438 0
DWIDTH 7 0
BBX 7 4 0 11
VVECTOR 4 16
SWIDTH1 0 -1250
DWIDTH1 0 -20
BITMAP 
82
C6
7C
38
ENDCHAR
STARTCHAR dotaccent
ENCODING 303
SWIDTH 313 0
DWIDTH 5 0
BBX 2 2 1 13
VVECTOR 2 16
SWIDTH1 0 -1250
DWIDTH1 0 -20
BITMAP 
C0
C0
ENDCHAR
STARTCHAR ring
ENCODING 304
SWIDTH 313 0
DWIDTH 5 0
BBX 5 5 0 10
VVECTOR 3 16
SWIDTH1 0 -1250
DWIDTH1 0 -20
BITMAP 
70
D8
88
D8
70
ENDCHAR
STARTCHAR hungarumlaut
ENCODING 305
SWIDTH 438 0
DWIDTH 7 0
BBX 7 3 0 12
VVECTOR 4 16
SWIDTH1 0 -1250
DWIDTH1 0 -20
BITMAP 
66
66
CC
ENDCHAR
STARTCHAR ogonek
ENCODING 306
SWIDTH 313 0
DWIDTH 5 0
BBX 4 4 0 -4
VVECTOR 2 16
SWIDTH1 0 -1250
DWIDTH1 0 -20
BITMAP 
40
E0
80
70
ENDCHAR
STARTCHAR caron
ENCODING 307
SWIDTH 438 0
DWIDTH 7 0
BBX 7 3 0 12
VVECTOR 4 16
SWIDTH1 0 -1250
DWIDTH1 0 -20
BITMAP 
C6
7C
38
ENDCHAR
STARTCHAR quoteleft
ENCODING 308
SWIDTH 250 0
DWIDTH 4 0
BBX 2 5 1 10
VVECTOR 2 16
SWIDTH1 0 -1250
DWIDTH1 0 -20
BITMAP 
40
C0
80
C0
C0
ENDCHAR
STARTCHAR quoteright
ENCODING 309
SWIDTH 250 0
DWIDTH 4 0
BBX 2 5 1 10
VVECTOR 2 16
SWIDTH1 0 -1250
DWIDTH1 0 -20
BITMAP 
C0
C0
40
C0
80
ENDCHAR
STARTCHAR quotedblleft
ENCODING 310
SWIDTH 313 0
DWIDTH 5 0
BBX 5 5 0 10
VVECTOR 3 16
SWIDTH1 0 -1250
DWIDTH1 0 -20
BITMAP 
48
D8
90
D8
D8
ENDCHAR
STARTCHAR quotedblright
ENCODING 311
SWIDTH 313 0
DWIDTH 5 0
BBX 5 5 0 10
VVECTOR 3 16
SWIDTH1 0 -1250
DWIDTH1 0 -20
BITMAP 
D8
D8
48
D8
90
ENDCHAR
STARTCHAR endash
ENCODING 312
SWIDTH 562 0
DWIDTH 9 0
BBX 7 2 1 3
VVECTOR 5 16
SWIDTH1 0 -1250
DWIDTH1 0 -20
BITMAP 
FE
FE
ENDCHAR
STARTCHAR emdash
ENCODING 313
SWIDTH 1000 0
DWIDTH 16 0
BBX 12 2 1 3
VVECTOR 6 16
SWIDTH1 0 -1250
DWIDTH1 0 -20
BITMAP 
FFF0
FFF0
ENDCHAR
STARTCHAR uniFFE5
ENCODING 314
SWIDTH 500 0
DWIDTH 8 0
BBX 8 4 0 11
VVECTOR 4 16
SWIDTH1 0 -1250
DWIDTH1 0 -20
BITMAP 
18
3C
66
C3
ENDCHAR
STARTCHAR dotlessi
ENCODING 315
SWIDTH 562 0
DWIDTH 9 0
BBX 9 3 0 12
VVECTOR 5 16
SWIDTH1 0 -1250
DWIDTH1 0 -20
BITMAP 
7080
FF80
8700
ENDCHAR
STARTCHAR quotesinglbase
ENCODING 316
SWIDTH 250 0
DWIDTH 4 0
BBX 2 5 1 -3
VVECTOR 2 16
SWIDTH1 0 -1250
DWIDTH1 0 -20
BITMAP 
C0
C0
40
C0
80
ENDCHAR
STARTCHAR quotedblbase
ENCODING 317
SWIDTH 313 0
DWIDTH 5 0
BBX 5 5 0 -3
VVECTOR 3 16
SWIDTH1 0 -1250
DWIDTH1 0 -20
BITMAP 
D8
D8
48
D8
90
ENDCHAR
STARTCHAR ellipsis
ENCODING 318
SWIDTH 1000 0
DWIDTH 16 0
BBX 11 1 3 0
VVECTOR 9 16
SWIDTH1 0 -1250
DWIDTH1 0 -20
BITMAP 
8420
ENDCHAR
STARTCHAR dagger
ENCODING 319
SWIDTH 562 0
DWIDTH 9 0
BBX 7 14 1 0
VVECTOR 5 16
SWIDTH1 0 -1250
DWIDTH1 0 -20
BITMAP 
10
10
FE
10
10
10
10
10
10
10
10
10
10
10
ENDCHAR
STARTCHAR daggerdbl
ENCODING 320
SWIDTH 562 0
DWIDTH 9 0
BBX 7 14 1 0
VVECTOR 5 16
SWIDTH1 0 -1250
DWIDTH1 0 -20
BITMAP 
10
10
FE
10
10
10
10
FE
10
10
10
10
10
10
ENDCHAR
STARTCHAR circumflex
ENCODING 321
SWIDTH 313 0
DWIDTH 5 0
BBX 5 3 0 10
VVECTOR 3 16
SWIDTH1 0 -1250
DWIDTH1 0 -20
BITMAP 
20
50
88
ENDCHAR
STARTCHAR perthousand
ENCODING 322
SWIDTH 1000 0
DWIDTH 16 0
BBX 16 12 0 0
VVECTOR 8 16
SWIDTH1 0 -1250
DWIDTH1 0 -20
BITMAP 
7010
8820
8840
8880
7100
0200
0400
08EE
1111
2111
4111
80EE
ENDCHAR
STARTCHAR Scaron
ENCODING 323
SWIDTH 688 0
DWIDTH 11 0
BBX 9 16 1 0
VVECTOR 6 16
SWIDTH1 0 -1250
DWIDTH1 0 -20
BITMAP 
2200
1400
0800
0000
3E00
4100
8080
8000
4000
3E00
0100
0080
0080
8080
4100
3E00
ENDCHAR
STARTCHAR guilsinglleft
ENCODING 324
SWIDTH 313 0
DWIDTH 5 0
BBX 3 5 1 1
VVECTOR 3 16
SWIDTH1 0 -1250
DWIDTH1 0 -20
BITMAP 
20
40
80
40
20
ENDCHAR
STARTCHAR OE
ENCODING 325
SWIDTH 1000 0
DWIDTH 16 0
BBX 16 12 0 0
VVECTOR 8 16
SWIDTH1 0 -1250
DWIDTH1 0 -20
BITMAP 
1F7F
6180
4080
8080
8080
80FE
8080
8080
8080
4080
6180
1F7F
ENDCHAR
STARTCHAR tilde
ENCODING 326
SWIDTH 313 0
DWIDTH 5 0
BBX 5 3 0 10
VVECTOR 3 16
SWIDTH1 0 -1250
DWIDTH1 0 -20
BITMAP 
C8
A8
98
ENDCHAR
STARTCHAR trademark
ENCODING 327
SWIDTH 1000 0
DWIDTH 16 0
BBX 14 6 1 6
VVECTOR 8 16
SWIDTH1 0 -1250
DWIDTH1 0 -20
BITMAP 
F98C
2154
2154
2154
2154
2124
ENDCHAR
STARTCHAR scaron
ENCODING 328
SWIDTH 500 0
DWIDTH 8 0
BBX 6 13 1 0
VVECTOR 4 16
SWIDTH1 0 -1250
DWIDTH1 0 -20
BITMAP 
44
28
10
00
78
84
80
80
78
04
04
84
78
ENDCHAR
STARTCHAR guilsinglright
ENCODING 329
SWIDTH 313 0
DWIDTH 5 0
BBX 3 5 1 1
VVECTOR 3 16
SWIDTH1 0 -1250
DWIDTH1 0 -20
BITMAP 
80
40
20
40
80
ENDCHAR
STARTCHAR oe
ENCODING 330
SWIDTH 938 0
DWIDTH 15 0
BBX 14 9 1 0
VVECTOR 9 16
SWIDTH1 0 -1250
DWIDTH1 0 -20
BITMAP 
3C70
4288
8104
8104
81FC
8100
8104
4288
3C70
ENDCHAR
ENDFONT
